<svg width="60" height="60" viewBox="0 0 60 60" fill="none" xmlns="http://www.w3.org/2000/svg">
<path d="M51.2647 2.35535H10.8613C8.6054 2.35535 6.44187 3.2515 4.8467 4.8467C3.2515 6.44187 2.35535 8.6054 2.35535 10.8613V57.6442L12.9878 51.2647L23.6203 57.6442L34.2528 51.2647L44.8852 57.6442V8.73482C44.8852 7.04287 45.5572 5.42025 46.7537 4.22385C47.9502 3.02747 49.5727 2.35535 51.2647 2.35535ZM51.2647 2.35535C52.9567 2.35535 54.5793 3.02747 55.7758 4.22385C56.972 5.42025 57.6442 7.04287 57.6442 8.73482V23.6203H44.8852" stroke="#2DC0CE" stroke-width="2" stroke-linecap="round" stroke-linejoin="round"/>
<path d="M28.3575 13.288H18.5508V21.6168H10.2222V31.4235H18.5508V39.7522H28.3575V31.4235H36.6865V21.6168H28.3575V13.288Z" stroke="#2DC0CE" stroke-width="2" stroke-linecap="round" stroke-linejoin="round"/>
</svg>
