<svg width="20" height="20" viewBox="0 0 20 20" fill="none" xmlns="http://www.w3.org/2000/svg">
<path d="M1.71875 7.5H18.2812C18.5391 7.5 18.75 7.71094 18.75 7.96875V18.125C18.75 19.1602 17.9102 20 16.875 20H3.125C2.08984 20 1.25 19.1602 1.25 18.125V7.96875C1.25 7.71094 1.46094 7.5 1.71875 7.5ZM18.75 5.78125V4.375C18.75 3.33984 17.9102 2.5 16.875 2.5H15V0.46875C15 0.210938 14.7891 0 14.5312 0H12.9688C12.7109 0 12.5 0.210938 12.5 0.46875V2.5H7.5V0.46875C7.5 0.210938 7.28906 0 7.03125 0H5.46875C5.21094 0 5 0.210938 5 0.46875V2.5H3.125C2.08984 2.5 1.25 3.33984 1.25 4.375V5.78125C1.25 6.03906 1.46094 6.25 1.71875 6.25H18.2812C18.5391 6.25 18.75 6.03906 18.75 5.78125Z" fill="white"/>
</svg>
