<svg width="20" height="20" viewBox="0 0 20 20" fill="none" xmlns="http://www.w3.org/2000/svg">
<path d="M13 12.5H14.5C14.75 12.5 15 12.25 15 12V6.75C15 6.5 14.75 6.25 14.5 6.25H13C12.75 6.25 12.5 6.5 12.5 6.75V12C12.5 12.25 12.75 12.5 13 12.5ZM16.75 12.5H18.25C18.5 12.5 18.75 12.25 18.75 12V3C18.75 2.75 18.5 2.5 18.25 2.5H16.75C16.5 2.5 16.25 2.75 16.25 3V12C16.25 12.25 16.5 12.5 16.75 12.5ZM5.5 12.5H7C7.25 12.5 7.5 12.25 7.5 12V9.25C7.5 9 7.25 8.75 7 8.75H5.5C5.25 8.75 5 9 5 9.25V12C5 12.25 5.25 12.5 5.5 12.5ZM9.25 12.5H10.75C11 12.5 11.25 12.25 11.25 12V4.25C11.25 4 11 3.75 10.75 3.75H9.25C9 3.75 8.75 4 8.75 4.25V12C8.75 12.25 9 12.5 9.25 12.5ZM19.375 15H2.5V3.125C2.5 2.77969 2.22031 2.5 1.875 2.5H0.625C0.279687 2.5 0 2.77969 0 3.125V16.25C0 16.9402 0.559766 17.5 1.25 17.5H19.375C19.7203 17.5 20 17.2203 20 16.875V15.625C20 15.2797 19.7203 15 19.375 15Z" fill="white"/>
</svg>
