<svg width="66" height="66" viewBox="0 0 66 66" fill="none" xmlns="http://www.w3.org/2000/svg">
<circle cx="39.75" cy="39" r="18.75" fill="#39EEFF"/>
<rect x="32.25" y="2.25" width="15" height="6.75" fill="#39EEFF"/>
<path d="M34.173 1.49532C33.2836 1.74023 32.7809 2.04961 32.0976 2.78438C30.3445 4.69219 30.6281 7.68282 32.7164 9.2168C33.0516 9.46172 33.5414 9.73243 33.8121 9.82266L34.2891 9.96445V11.6016V13.2387L33.3609 13.4707C30.3574 14.1926 26.7351 15.9715 24.041 18.034C23.0613 18.7816 20.9086 20.8441 20.0707 21.8496L19.4262 22.6231L14.4891 22.6875L9.56484 22.752L9.22968 23.0613C8.58515 23.6801 8.72695 24.7758 9.50039 25.1238C9.70664 25.2141 11.1633 25.2656 13.6641 25.2656C15.791 25.2656 17.5312 25.2914 17.5312 25.3172C17.5312 25.343 17.2219 25.9617 16.8351 26.6965C16.4613 27.4313 15.9586 28.5398 15.7266 29.1586L15.3012 30.293H8.04375H0.786323L0.451167 30.5766C0.0128858 30.9633 -0.11602 31.7109 0.193355 32.175C0.644526 32.8582 0.72187 32.8711 7.94062 32.8711H14.5922L14.5148 33.1547C14.4246 33.5027 14.0894 35.952 13.9734 37.0219L13.909 37.7695H10.9441C7.72148 37.7695 7.4121 37.8211 7.11562 38.4785C6.92226 38.9039 6.92226 39.2133 7.11562 39.6387C7.4121 40.2961 7.72148 40.3477 10.9957 40.3477H14.0121L14.1023 41.3789C14.1797 42.3715 14.6437 44.9238 14.7727 45.143C14.8113 45.1945 12.9551 45.2461 10.6348 45.2461C6.08437 45.2461 5.77499 45.2848 5.3496 45.9422C5.04023 46.4063 5.16914 47.1539 5.60742 47.5406C5.94257 47.8242 5.95546 47.8242 10.7766 47.8242H15.6105L15.7523 48.2367C16.0101 48.9844 17.2348 51.382 17.918 52.4777C20.4187 56.5125 24.1957 59.8898 28.5527 62.0039C34.882 65.0848 41.6754 65.4973 48.5332 63.2285C49.6547 62.8547 52.8 61.3594 53.7926 60.7148C54.8367 60.0445 55.0301 59.1164 54.2437 58.459C53.7281 58.0207 53.1738 58.0465 52.4004 58.5363C51.1887 59.3098 48.9844 60.341 47.4762 60.8438C40.5152 63.1512 32.9226 62.1328 26.8769 58.0723C17.2348 51.5883 13.8059 39.0586 18.8074 28.5527C22.0043 21.8496 27.9598 17.2219 35.4492 15.6363C36.9187 15.3141 37.3184 15.2883 39.9609 15.2883C42.6164 15.2883 43.0031 15.3141 44.4855 15.6363C46.8445 16.1391 48.3012 16.6418 50.4668 17.7246C52.6324 18.8074 54.1535 19.8387 55.8422 21.3984C63.9375 28.8621 65.7551 41.1469 60.1476 50.5699C59.4387 51.7816 59.3484 52.091 59.5547 52.6066C59.8254 53.2383 60.7535 53.5606 61.3723 53.2383C61.6945 53.0578 62.3648 51.9879 63.2156 50.2992C67.6242 41.4949 66.709 30.9891 60.8308 23.0742C59.8383 21.7336 57.6469 19.452 56.332 18.3949C53.5734 16.1648 50.1187 14.3988 46.7543 13.5094L45.6328 13.2129V11.6016V9.99024L46.3547 9.68086C47.2699 9.28125 48.1465 8.43047 48.5719 7.50235C49.0488 6.45821 49.0617 5.01445 48.5719 3.9832C48.1078 2.96484 47.4246 2.26875 46.432 1.77891L45.5684 1.35352L40.2187 1.32774C35.823 1.30196 34.7402 1.32774 34.173 1.49532ZM44.9883 3.94453C45.5426 4.06055 46.2387 4.78242 46.3547 5.33672C46.4578 5.92969 46.2258 6.57422 45.7488 7.03828L45.3621 7.41211L40.0769 7.45078C34.9336 7.48946 34.766 7.47656 34.3535 7.21875C33.5285 6.71602 33.2707 5.55586 33.8121 4.75664C34.3922 3.88008 34.4437 3.86719 39.7805 3.86719C42.4101 3.86719 44.7562 3.90586 44.9883 3.94453ZM43.0547 11.3695V12.6973H39.9609H36.8672V11.3695V10.0547H39.9609H43.0547V11.3695Z" fill="black"/>
<path d="M37.5117 18.7817C34.8434 19.207 32.884 19.8258 30.8086 20.8957C25.4074 23.6801 21.6562 28.643 20.3414 34.7274C19.9289 36.6352 19.9289 40.5926 20.3543 42.5391C21.5144 47.9789 24.6211 52.5164 29.1973 55.4555C35.7328 59.6578 44.1891 59.6578 50.7246 55.4555C55.3008 52.5164 58.4074 47.9789 59.5676 42.5391C59.993 40.5926 59.993 36.6352 59.5805 34.7274C57.8016 26.516 51.4336 20.3285 43.3383 18.9363C41.9719 18.7043 38.543 18.6141 37.5117 18.7817ZM42.7324 21.4629C50.2605 22.7004 56.0098 28.5527 57.1828 36.1582C57.4277 37.718 57.3633 40.5797 57.0539 42.0235C56.2934 45.5426 54.7336 48.4172 52.2199 50.918C49.6676 53.4574 46.8832 54.9656 43.4027 55.7004C41.6625 56.0742 38.5043 56.1129 36.8285 55.7777C34.418 55.2879 32.0332 54.2953 30.0351 52.9418C29.5066 52.568 28.4496 51.6656 27.7019 50.918C25.1883 48.4172 23.6285 45.5426 22.868 42.0235C22.5586 40.5797 22.4941 37.718 22.7391 36.1582C23.8992 28.6043 29.6613 22.7133 37.1121 21.4629C38.4785 21.2309 41.3402 21.2309 42.7324 21.4629Z" fill="black"/>
<path d="M39.3293 23.7703C38.8523 24.0281 38.6848 24.4793 38.6719 25.4332C38.6719 26.4129 38.891 26.9543 39.4066 27.1863C39.8191 27.3797 40.1672 27.3668 40.5926 27.1477C41.0824 26.8899 41.25 26.4387 41.25 25.3172C41.25 24.4149 41.2242 24.3117 40.8762 23.9637C40.4508 23.5512 39.8707 23.4738 39.3293 23.7703Z" fill="black"/>
<path d="M48.5332 28.4109C48.3269 28.5141 46.7027 30.0481 44.9367 31.8141L41.7269 35.0367L41.2113 34.8563C40.5797 34.6371 39.2777 34.6371 38.6719 34.8691L38.2207 35.0367L36.5965 33.4383C35.1012 31.9688 34.9336 31.8399 34.4953 31.8399C33.8766 31.8399 33.5672 32.0074 33.3223 32.4844C32.9226 33.2578 33.0129 33.4383 34.7402 35.1785L36.3387 36.8027L36.1582 37.4344C35.7457 38.8008 36.0551 40.2188 37.009 41.2887C38.5559 43.0547 41.366 43.0547 42.9129 41.2887C43.8668 40.2188 44.1762 38.8008 43.7637 37.4344L43.5703 36.8027L46.9219 33.4512C50.209 30.1512 50.2734 30.0738 50.2734 29.5582C50.2734 29.1715 50.1832 28.9523 49.9383 28.6945C49.7449 28.5141 49.5258 28.3594 49.4226 28.3594C49.3324 28.3594 49.1906 28.3336 49.0875 28.2949C48.9973 28.2691 48.7523 28.3207 48.5332 28.4109ZM40.9406 37.6922C41.4562 38.2078 41.5207 38.7621 41.134 39.3938C40.3992 40.5926 38.543 39.9996 38.543 38.5559C38.543 37.8984 39.2391 37.2539 39.9609 37.2539C40.3992 37.2539 40.5797 37.3313 40.9406 37.6922Z" fill="black"/>
<path d="M25.3301 37.6922C24.7371 38.2852 24.7758 39.136 25.4203 39.6129C25.7941 39.8965 26.8125 40.0383 27.4957 39.9094C28.5785 39.7031 28.991 38.5172 28.2434 37.7567C27.8824 37.3957 27.8051 37.3828 26.748 37.3828C25.7426 37.3828 25.6137 37.4086 25.3301 37.6922Z" fill="black"/>
<path d="M51.6785 37.7566C51.4078 38.0402 51.3047 38.2594 51.3047 38.6074C51.3047 39.6258 51.8848 40.0125 53.3414 39.9352C54.2309 39.8965 54.3211 39.8578 54.6691 39.4711C55.0688 39.0199 55.1332 38.6203 54.8883 38.0918C54.6563 37.5762 54.1535 37.3828 53.0449 37.3828C52.1297 37.3828 52.0266 37.4086 51.6785 37.7566Z" fill="black"/>
<path d="M39.6129 49.9769C39.4582 50.0027 39.1746 50.209 38.9941 50.4152C38.7105 50.7633 38.6719 50.9309 38.6719 51.8332C38.6719 52.7742 38.6977 52.8773 39.0457 53.2641C39.4711 53.741 40.1027 53.8184 40.657 53.4445C41.1082 53.1609 41.25 52.7613 41.25 51.8203C41.25 51.4078 41.1984 50.918 41.1211 50.7375C40.9277 50.2219 40.2188 49.8609 39.6129 49.9769Z" fill="black"/>
<path d="M0.812098 45.4395C-0.464074 45.9938 -0.103136 47.8242 1.27616 47.8242C2.51366 47.8242 3.05507 46.2258 2.03671 45.5941C1.55975 45.2848 1.25038 45.2461 0.812098 45.4395Z" fill="black"/>
<path d="M56.5769 55.2879C56.0871 55.7906 56.0742 56.4094 56.5383 56.9637C56.809 57.2988 56.9637 57.3633 57.4148 57.3633C58.0465 57.3633 58.4332 57.1312 58.6523 56.6027C59.168 55.3395 57.5566 54.3211 56.5769 55.2879Z" fill="black"/>
</svg>
