<svg width="60" height="60" viewBox="0 0 60 60" fill="none" xmlns="http://www.w3.org/2000/svg">
<path d="M35 5H15C13.6739 5 12.4021 5.52678 11.4645 6.46447C10.5268 7.40215 10 8.67392 10 10V50C10 51.3261 10.5268 52.5979 11.4645 53.5355C12.4021 54.4732 13.6739 55 15 55H45C46.3261 55 47.5979 54.4732 48.5355 53.5355C49.4732 52.5979 50 51.3261 50 50V20L35 5Z" stroke="#2DC0CE" stroke-width="2" stroke-linecap="round" stroke-linejoin="round"/>
<path d="M35 5V20H50" stroke="#2DC0CE" stroke-width="2" stroke-linecap="round" stroke-linejoin="round"/>
<path d="M40 32.5H20" stroke="#2DC0CE" stroke-width="2" stroke-linecap="round" stroke-linejoin="round"/>
<path d="M40 42.5H20" stroke="#2DC0CE" stroke-width="2" stroke-linecap="round" stroke-linejoin="round"/>
<path d="M25 22.5H22.5H20" stroke="#2DC0CE" stroke-width="2" stroke-linecap="round" stroke-linejoin="round"/>
</svg>
