<svg width="40" height="40" viewBox="0 0 40 40" fill="none" xmlns="http://www.w3.org/2000/svg">
<circle cx="20" cy="20" r="20" fill="#2DC0CE"/>
<path d="M15.3974 28.3334H11.942V17.2059H15.3974V28.3334ZM13.6678 15.688C12.5629 15.688 11.6667 14.7728 11.6667 13.6679C11.6667 13.1372 11.8775 12.6282 12.2528 12.2529C12.6281 11.8776 13.1371 11.6667 13.6678 11.6667C14.1986 11.6667 14.7076 11.8776 15.0829 12.2529C15.4581 12.6282 15.669 13.1372 15.669 13.6679C15.669 14.7728 14.7724 15.688 13.6678 15.688ZM28.33 28.3334H24.882V22.9166C24.882 21.6257 24.8559 19.9701 23.0854 19.9701C21.2889 19.9701 21.0136 21.3727 21.0136 22.8236V28.3334H17.5619V17.2059H20.8759V18.7238H20.9243C21.3856 17.8495 22.5125 16.9269 24.1937 16.9269C27.6908 16.9269 28.3337 19.2298 28.3337 22.2209V28.3334H28.33Z" fill="white"/>
</svg>
