<svg width="66" height="66" viewBox="0 0 66 66" fill="none" xmlns="http://www.w3.org/2000/svg">
<g clip-path="url(#clip0_19_88)">
<g clip-path="url(#clip1_19_88)">
<path d="M44.8211 4.15672C45.1421 4.4399 45.4529 4.73094 45.7617 5.02734C45.8754 5.13286 45.989 5.23837 46.1061 5.34709C49.3874 8.48468 51.3286 13.0249 51.4598 17.5579C51.494 20.0066 51.2119 22.3047 50.4023 24.6211C50.3566 24.7528 50.3566 24.7528 50.3099 24.8871C49.4819 27.2033 48.0732 29.2279 46.7456 31.2813C46.3843 31.8423 46.0426 32.3943 45.7617 33C45.8992 33.0519 45.8992 33.0519 46.0395 33.1049C46.4158 33.2618 46.7615 33.4436 47.1172 33.6425C47.2556 33.7196 47.394 33.7967 47.5365 33.8762C47.6846 33.9593 47.8328 34.0423 47.9853 34.1279C48.1414 34.2151 48.2975 34.3023 48.4535 34.3895C48.7746 34.5689 49.0956 34.7485 49.4165 34.9282C49.9856 35.247 50.5558 35.5637 51.1261 35.8804C51.3906 36.0282 51.6544 36.1772 51.9176 36.3272C52.591 36.7111 53.2668 37.0773 53.9624 37.4196C54.1017 37.4918 54.241 37.5639 54.3845 37.6383C54.6453 37.7734 54.9091 37.9028 55.1765 38.0244C56.3961 38.6749 56.6766 39.7613 57.1008 40.9964C57.2867 41.5288 57.49 42.054 57.6928 42.5802C57.8599 43.0141 58.0248 43.4488 58.1892 43.8838C58.2462 44.0346 58.3032 44.1855 58.3619 44.3409C58.4205 44.496 58.4791 44.6512 58.5395 44.811C58.6637 45.1393 58.788 45.4675 58.9123 45.7957C59.1376 46.3906 59.3628 46.9856 59.5879 47.5806C60.1695 49.118 60.7525 50.655 61.3355 52.1919C61.5119 52.6569 61.6883 53.1219 61.8647 53.5869C62.612 55.5569 63.3597 57.5268 64.108 59.4965C64.2128 59.7725 64.3177 60.0486 64.4225 60.3246C64.5207 60.583 64.6188 60.8413 64.717 61.0997C64.8083 61.3398 64.8994 61.58 64.9905 61.8203C65.1785 62.3158 65.3676 62.8107 65.5636 63.3032C65.6224 63.4515 65.6811 63.5999 65.7417 63.7527C65.8156 63.9358 65.8156 63.9358 65.8909 64.1226C66.0657 64.6523 66.0713 65.0605 66 65.6133C65.8067 65.8707 65.6836 65.9808 65.3719 66.0658C64.4263 66.0942 63.8086 65.6966 63.0271 65.2024C62.7524 65.0353 62.4775 64.8686 62.2023 64.7024C62.0626 64.6174 61.9229 64.5325 61.7789 64.445C61.1263 64.0566 60.4584 63.6985 59.7883 63.3413C58.7126 62.7646 57.6476 62.1728 56.5897 61.564C55.5838 60.9854 54.5719 60.4179 53.5585 59.8525C52.8673 59.4666 52.1776 59.0785 51.4905 58.6856C51.355 58.6083 51.2196 58.531 51.08 58.4514C50.822 58.304 50.5642 58.1561 50.3067 58.0076C50.1912 57.9417 50.0757 57.8758 49.9567 57.8079C49.8557 57.7499 49.7547 57.6918 49.6507 57.632C49.3703 57.4918 49.1679 57.3925 48.8555 57.3633C48.5346 57.4849 48.5346 57.4849 48.2044 57.6866C48.0759 57.7598 47.9475 57.833 47.8152 57.9084C47.6083 58.0294 47.6083 58.0294 47.3972 58.1528C47.2535 58.2352 47.1097 58.3175 46.9617 58.4023C46.6631 58.5734 46.3648 58.7449 46.067 58.9173C45.4307 59.2846 44.7905 59.6451 44.1504 60.0059C43.906 60.1441 43.6616 60.2825 43.4172 60.4208C42.6316 60.8648 41.8442 61.3056 41.0566 61.7461C40.1418 62.2578 39.2274 62.7704 38.3149 63.2863C38.0712 63.424 37.8274 63.5615 37.5834 63.6987C36.9423 64.0597 36.3053 64.4265 35.6723 64.8016C35.5392 64.8794 35.4061 64.9573 35.269 65.0375C35.0148 65.1863 34.7616 65.3369 34.5095 65.4894C33.4049 66.1319 33.4049 66.1319 32.7653 66.0783C32.0841 65.8885 31.4862 65.502 30.8811 65.146C30.7272 65.0576 30.5732 64.9694 30.419 64.8815C30.102 64.7003 29.7856 64.518 29.4696 64.3349C28.766 63.9279 28.0545 63.535 27.3442 63.1399C26.259 62.5327 25.1779 61.9186 24.0992 61.2999C23.0888 60.7211 22.0736 60.1513 21.0554 59.5864C20.388 59.2152 19.7262 58.8378 19.0726 58.4429C18.9498 58.3696 18.827 58.2963 18.7005 58.2208C18.4694 58.0823 18.2395 57.9418 18.0111 57.7988C17.9081 57.7375 17.8051 57.6762 17.6989 57.613C17.6101 57.5584 17.5212 57.5037 17.4297 57.4474C16.9129 57.295 16.4996 57.5568 16.0386 57.7874C15.9281 57.8502 15.8177 57.9129 15.7039 57.9776C15.5776 58.0489 15.4513 58.1202 15.3212 58.1936C15.1864 58.2706 15.0517 58.3475 14.9128 58.4268C14.6221 58.5913 14.3314 58.7558 14.0407 58.9202C13.9666 58.9623 13.8924 59.0044 13.816 59.0477C13.3215 59.3284 12.8256 59.6065 12.3287 59.883C11.001 60.6218 9.68045 61.3704 8.37084 62.1409C7.20755 62.8252 6.0306 63.4785 4.8392 64.1126C4.24883 64.4282 3.66654 64.7489 3.09777 65.1022C2.99964 65.1628 2.90151 65.2234 2.8004 65.2859C2.62231 65.3973 2.44551 65.5108 2.27049 65.627C1.67189 66.0014 1.09146 66.1554 0.386714 66C0.135934 65.8005 0.0149452 65.6829 -0.0531006 65.366C-0.0482994 64.567 0.140521 63.9305 0.436061 63.1928C0.48267 63.0718 0.529279 62.9508 0.5773 62.8262C0.732231 62.4252 0.889819 62.0252 1.04736 61.6252C1.15818 61.3396 1.26879 61.0538 1.37919 60.768C1.61382 60.1609 1.8493 59.5541 2.08528 58.9475C2.62844 57.5484 3.15828 56.1442 3.68908 54.7404C3.98707 53.9526 4.28594 53.1652 4.58473 52.3777C4.70275 52.0666 4.82076 51.7555 4.93878 51.4444C5.02516 51.2166 5.02516 51.2166 5.1133 50.9843C5.22653 50.6858 5.33976 50.3873 5.45298 50.0888C6.06993 48.4622 6.68756 46.8359 7.30703 45.2103C7.59314 44.459 7.87728 43.7069 8.15989 42.9542C8.3379 42.4806 8.51698 42.0075 8.69629 41.5345C8.77907 41.3154 8.86135 41.096 8.94311 40.8765C9.05439 40.5779 9.16736 40.2799 9.28074 39.9821C9.31259 39.8953 9.34444 39.8085 9.37725 39.719C9.6928 38.9005 10.1269 38.5446 10.882 38.1331C11.0208 38.0568 11.1596 37.9805 11.3026 37.9019C11.4518 37.821 11.601 37.7401 11.7546 37.6567C11.9111 37.571 12.0674 37.4852 12.2237 37.3993C12.5457 37.2224 12.8678 37.0458 13.19 36.8695C13.9038 36.4785 14.6138 36.0808 15.3237 35.6829C15.4549 35.6095 15.5861 35.5361 15.7212 35.4605C16.3718 35.096 17.0207 34.7288 17.6672 34.357C17.8529 34.2503 17.8529 34.2503 18.0424 34.1414C18.2747 34.0075 18.5068 33.8733 18.7387 33.7386C18.842 33.679 18.9454 33.6194 19.0519 33.5579C19.1415 33.506 19.231 33.454 19.3232 33.4004C19.6209 33.2435 19.9241 33.12 20.2383 33C19.7313 32.0415 19.1848 31.1217 18.5947 30.2124C16.8451 27.4804 15.4974 24.9849 14.8242 21.7852C14.7923 21.6348 14.7604 21.4844 14.7275 21.3295C13.9317 16.7811 15.0835 11.7846 17.6763 7.97657C18.3069 7.11713 18.9909 6.31729 19.7227 5.54297C19.8253 5.43047 19.928 5.31797 20.0338 5.20207C22.3774 2.72751 25.3829 1.31096 28.6172 0.386715C28.71 0.359754 28.8029 0.332794 28.8985 0.305016C34.3302 -1.18383 40.5889 0.640108 44.8211 4.15672ZM21.0157 7.161C18.0531 10.2552 16.5433 14.4563 16.5838 18.7126C16.6973 22.8716 18.4476 26.1479 20.6596 29.5608C20.9928 30.0765 21.3208 30.5954 21.6482 31.1147C21.7102 31.2129 21.7721 31.311 21.836 31.4121C22.3535 32.2324 22.867 33.0553 23.3804 33.8782C24.0771 34.9949 24.7804 36.1071 25.4886 37.2166C26.1252 38.215 26.7526 39.219 27.379 40.2238C27.9883 41.2002 28.6048 42.1718 29.2241 43.1418C29.8894 44.1851 30.5453 45.2342 31.1988 46.2849C31.4117 46.6267 31.6253 46.9679 31.8398 47.3086C31.8928 47.3928 31.9458 47.4771 32.0003 47.5639C32.2432 47.9537 32.2432 47.9537 32.6133 48.2109C33.1608 48.2747 33.1608 48.2747 33.6254 48.0196C34.0062 47.5737 34.3042 47.09 34.6113 46.5916C34.7496 46.3698 34.8879 46.1481 35.0262 45.9264C35.0965 45.8132 35.1668 45.7 35.2392 45.5834C35.5644 45.0611 35.8936 44.5414 36.2227 44.0215C36.3516 43.8174 36.4805 43.6133 36.6094 43.4092C37.3828 42.1846 37.3828 42.1846 37.5761 41.8786C37.7053 41.674 37.8345 41.4693 37.9637 41.2647C38.281 40.7623 38.5983 40.2601 38.9161 39.758C39.6279 38.6329 40.3358 37.5054 41.0405 36.3757C41.8199 35.1267 42.6076 33.8833 43.3991 32.642C43.9252 31.8169 44.4489 30.9904 44.9696 30.162C45.2655 29.6917 45.5647 29.2237 45.8649 28.7562C48.5984 24.4782 50.1635 20.0064 49.06 14.8817C48.0295 10.5833 45.5006 6.89793 41.7656 4.51172C41.6242 4.42049 41.4828 4.32926 41.3371 4.23527C34.7072 0.208041 26.3489 1.76714 21.0157 7.161ZM18.8203 43.1836C18.734 43.5434 18.6481 43.9032 18.5625 44.2632C18.5379 44.3655 18.5133 44.4679 18.488 44.5734C18.4647 44.6714 18.4414 44.7694 18.4175 44.8705C18.3959 44.9609 18.3743 45.0514 18.352 45.1446C18.296 45.3779 18.296 45.3779 18.3047 45.6328C18.3825 45.6283 18.4602 45.6238 18.5403 45.6192C18.6949 45.614 18.6949 45.614 18.8525 45.6086C19.0051 45.6019 19.0051 45.6019 19.1607 45.5951C19.5315 45.6411 19.7028 45.7769 19.9805 46.0195C20.0456 45.7296 20.1099 45.4396 20.1738 45.1494C20.2277 44.9071 20.2277 44.9071 20.2826 44.66C20.3832 44.2059 20.3832 44.2059 20.3672 43.6992C20.2879 43.6944 20.2087 43.6896 20.127 43.6846C20.0228 43.6761 19.9186 43.6677 19.8113 43.6589C19.7081 43.6515 19.6049 43.644 19.4986 43.6363C19.1563 43.5588 19.0537 43.4358 18.8203 43.1836Z" fill="#000101"/>
<path d="M39.1608 9.52597C39.4363 9.73731 39.6994 9.95538 39.9609 10.1836C40.0846 10.2821 40.2082 10.3807 40.3356 10.4822C42.3675 12.179 43.4867 14.8585 43.7274 17.4478C43.9084 20.197 43.1952 23.0194 41.3608 25.1266C41.2817 25.2151 41.2026 25.3035 41.1211 25.3945C41.0427 25.4981 40.9642 25.6016 40.8834 25.7082C39.409 27.4631 36.9394 28.7465 34.6758 29.0039C31.6073 29.229 28.7212 28.8066 26.2959 26.7788C26.2111 26.7048 26.1264 26.6309 26.0391 26.5547C25.9141 26.455 25.7891 26.3553 25.6604 26.2526C24.1583 24.9986 23.0264 22.9005 22.5586 21.0117C22.5325 20.9132 22.5064 20.8146 22.4795 20.7131C21.8596 17.9507 22.4203 15.0509 23.8477 12.6328C24.1641 12.1742 24.5069 11.7578 24.8789 11.3438C24.9799 11.2108 25.081 11.0779 25.1851 10.9409C28.7161 7.07356 34.9153 6.64021 39.1608 9.52597ZM29.3977 15.2291C28.4356 16.4125 28.1201 17.5592 28.2305 19.0781C28.4794 20.4939 29.2657 21.5961 30.4219 22.4297C31.6342 23.1549 33.0401 23.3007 34.417 22.9861C35.7478 22.4865 36.8242 21.5529 37.4246 20.2564C37.9129 18.9338 37.9432 17.6758 37.3828 16.3711C36.7164 15.1068 35.6838 14.1694 34.3203 13.7179C32.4411 13.3676 30.7035 13.7921 29.3977 15.2291Z" fill="#38EAFA"/>
<path d="M22.1719 35.9648C22.7363 36.153 22.8931 36.5937 23.179 37.0847C23.3064 37.2985 23.4342 37.5122 23.5621 37.7257C23.6634 37.895 23.6634 37.895 23.7666 38.0677C24.117 38.6458 24.482 39.2145 24.8467 39.7837C25.4864 40.7844 26.1198 41.7889 26.748 42.7969C27.5237 44.0406 28.3046 45.2808 29.0961 46.5145C29.372 46.9453 29.6419 47.379 29.9068 47.8167C29.9681 47.9162 30.0295 48.0158 30.0927 48.1183C30.2049 48.3005 30.3153 48.4837 30.4233 48.6684C30.7365 49.1711 31.0073 49.4243 31.5318 49.7053C32.0629 50.0524 32.0629 50.0524 32.2033 50.4242C32.2405 50.7675 32.2413 51.0941 32.2294 51.4393C32.2296 51.6319 32.2296 51.6319 32.2299 51.8283C32.2291 52.2512 32.2201 52.6735 32.211 53.0963C32.2088 53.39 32.2071 53.6837 32.206 53.9773C32.2016 54.7493 32.1902 55.5209 32.1773 56.2928C32.1654 57.0808 32.1601 57.8688 32.1543 58.6569C32.1419 60.2024 32.1221 61.7476 32.0977 63.293C31.6928 63.1984 31.372 63.0681 31.0065 62.8675C30.8942 62.8061 30.7819 62.7447 30.6662 62.6815C30.5457 62.6147 30.4252 62.548 30.301 62.4792C30.1748 62.4099 30.0486 62.3405 29.9185 62.269C28.9681 61.7447 28.0244 61.209 27.0833 60.6683C26.212 60.1679 25.3369 59.6745 24.46 59.1841C24.3264 59.1093 24.1928 59.0346 24.0551 58.9575C23.3525 58.5645 22.6492 58.1726 21.9453 57.7817C21.8024 57.7022 21.6596 57.6227 21.5124 57.5407C21.2419 57.3902 20.9713 57.24 20.7004 57.0902C19.8383 56.6099 19.0028 56.097 18.1758 55.5586C18.2242 54.1336 18.553 52.777 18.8687 51.3933C18.9721 50.9347 19.075 50.4759 19.1778 50.0171C19.2151 49.851 19.2151 49.851 19.2532 49.6815C19.6875 47.7542 19.6875 47.7542 19.9805 45.802C20.097 44.8768 20.2297 43.9066 20.6144 43.0486C20.8116 42.5106 20.9128 41.9618 21.0238 41.4006C21.061 41.2168 21.061 41.2168 21.0989 41.0292C21.1778 40.6383 21.2559 40.2473 21.334 39.8562C21.4121 39.4665 21.4905 39.0769 21.5691 38.6873C21.6179 38.4453 21.6664 38.2033 21.7146 37.9612C21.8493 37.2903 22.0005 36.6273 22.1719 35.9648Z" fill="#38ECFC"/>
<path d="M43.5703 35.9648C43.6554 35.9648 43.7405 35.9648 43.8281 35.9648C44.1693 37.4292 44.4967 38.8911 44.7642 40.3708C44.8626 40.8798 44.9787 41.3829 45.1011 41.8865C45.3105 42.7528 45.493 43.6224 45.665 44.4968C45.9417 45.901 46.2318 47.302 46.5271 48.7024C46.5491 48.8069 46.5711 48.9113 46.5937 49.0189C46.8216 50.1018 47.0516 51.1841 47.289 52.2649C47.3251 52.4304 47.3613 52.5958 47.3985 52.7663C47.4655 53.072 47.5332 53.3775 47.6016 53.6828C47.6312 53.8179 47.6608 53.9531 47.6913 54.0923C47.7171 54.2083 47.743 54.3243 47.7696 54.4438C47.8313 54.8293 47.8615 55.1691 47.8242 55.5586C47.6507 55.7459 47.6507 55.7459 47.4012 55.8773C47.3065 55.9295 47.2118 55.9817 47.1142 56.0355C47.0082 56.0908 46.9022 56.1461 46.793 56.2031C46.5605 56.3342 46.3282 56.4657 46.0961 56.5974C45.8343 56.7428 45.5725 56.8879 45.3105 57.033C44.2042 57.6484 43.1062 58.2757 42.0154 58.9182C40.8638 59.5954 39.6987 60.2417 38.5211 60.8724C37.5155 61.4121 36.5235 61.973 35.5375 62.5478C35.3814 62.6382 35.3814 62.6382 35.2221 62.7305C35.1318 62.7833 35.0414 62.8361 34.9484 62.8905C34.6501 63.0488 34.3453 63.1696 34.0312 63.293C34.0044 61.5752 33.9838 59.8575 33.9711 58.1396C33.9651 57.3419 33.9569 56.5443 33.9437 55.7467C33.9311 54.9769 33.9242 54.2072 33.9212 53.4373C33.919 53.1436 33.9148 52.8499 33.9086 52.5563C33.9002 52.1448 33.899 51.7338 33.8995 51.3222C33.8954 51.2009 33.8912 51.0795 33.8869 50.9545C33.8918 50.605 33.9083 50.3432 34.0312 50.0156C34.3085 49.7561 34.5813 49.5792 34.9145 49.398C35.2857 49.1891 35.4583 48.9393 35.6733 48.576C35.7488 48.4515 35.8244 48.327 35.9022 48.1987C36.017 48.0014 36.017 48.0014 36.134 47.8C36.3021 47.521 36.4703 47.2421 36.6386 46.9632C36.7618 46.7561 36.7618 46.7561 36.8875 46.5448C37.223 45.9849 37.5719 45.434 37.9226 44.8835C38.048 44.6854 38.1734 44.4871 38.2988 44.2889C38.3601 44.1919 38.4215 44.0949 38.4847 43.995C38.8053 43.4884 39.1253 42.9815 39.4453 42.4746C39.5742 42.2705 39.7031 42.0664 39.832 41.8623C39.8958 41.7613 39.9596 41.6602 40.0254 41.5562C40.2187 41.25 40.4121 40.9438 40.6055 40.6377C40.6694 40.5365 40.7333 40.4353 40.7991 40.331C40.927 40.1286 41.0548 39.9262 41.1827 39.7238C41.5212 39.1879 41.8595 38.652 42.1977 38.116C42.2683 38.0041 42.3389 37.8921 42.4117 37.7768C42.5473 37.5618 42.6829 37.3468 42.8185 37.1318C42.91 36.9869 42.91 36.9869 43.0033 36.839C43.0569 36.754 43.1105 36.669 43.1658 36.5814C43.298 36.3742 43.434 36.1694 43.5703 35.9648Z" fill="#38EDFD"/>
<path d="M20.3672 35.3203C20.2408 36.2468 20.0598 37.1593 19.8757 38.0757C19.8585 38.1621 19.8412 38.2485 19.8235 38.3376C19.6077 39.418 19.3767 40.4924 19.1115 41.5618C18.9396 42.2742 18.8531 42.9877 18.7669 43.7144C18.6945 44.194 18.5872 44.6401 18.4557 45.1066C18.1909 46.069 17.9684 47.0376 17.7557 48.0127C17.6902 48.3092 17.6224 48.6052 17.5542 48.9011C17.314 49.9522 17.1069 50.9968 16.9527 52.064C16.4655 55.2526 16.4655 55.2526 15.4929 56.0339C14.8781 56.4204 14.2274 56.6896 13.5491 56.9443C12.8897 57.2095 12.2929 57.5747 11.6821 57.9353C11.436 58.0752 11.1896 58.2145 10.9429 58.3532C10.8191 58.4232 10.6952 58.4931 10.5675 58.5651C9.76285 59.0181 8.9564 59.468 8.1503 59.9185C7.14941 60.4786 6.15302 61.0462 5.15811 61.6168C4.38946 62.0571 3.61652 62.4875 2.83594 62.9062C3.19414 61.6076 3.68596 60.361 4.16528 59.1035C4.26194 58.8489 4.35856 58.5943 4.45513 58.3397C4.66374 57.79 4.87261 57.2403 5.08166 56.6907C5.42291 55.7935 5.76323 54.8958 6.10341 53.9981C7.2184 51.0562 8.33507 48.1148 9.45237 45.1737C9.55696 44.8984 9.66154 44.6231 9.76612 44.3477C9.81555 44.2176 9.86497 44.0875 9.9159 43.9534C9.96357 43.8277 10.0112 43.702 10.0604 43.5725C10.152 43.3318 10.2443 43.0913 10.3373 42.8511C10.5257 42.3631 10.7089 41.8783 10.8587 41.3769C11.1619 40.4184 11.4874 39.9928 12.3825 39.5215C12.5183 39.4565 12.6541 39.3914 12.7939 39.3245C13.0849 39.1737 13.3758 39.0228 13.6666 38.8718C13.8901 38.759 13.8901 38.759 14.1181 38.644C14.835 38.2763 15.5335 37.877 16.2341 37.4795C16.4999 37.3306 16.7658 37.1819 17.0317 37.0334C17.521 36.7597 18.0098 36.4851 18.498 36.2096C18.7102 36.0904 18.9224 35.9712 19.1345 35.8521C19.2306 35.7975 19.3268 35.743 19.4258 35.6868C20.0802 35.3203 20.0802 35.3203 20.3672 35.3203Z" fill="#38ECFD"/>
<path d="M45.6328 35.1914C46.7105 35.7001 47.7412 36.2779 48.7732 36.8724C49.832 37.4822 50.8974 38.0796 51.9649 38.6739C52.2121 38.8118 52.4586 38.9508 52.7042 39.0914C52.9651 39.2362 53.2298 39.3745 53.4984 39.5043C54.5673 40.0492 54.9536 40.5562 55.328 41.6795C55.4075 41.8959 55.4075 41.8959 55.4886 42.1167C55.632 42.5096 55.7706 42.9037 55.9073 43.2989C56.0539 43.7186 56.2068 44.1361 56.3594 44.5537C56.5816 45.1636 56.8022 45.774 57.0205 46.3853C57.5773 47.9432 58.1662 49.4883 58.757 51.0335C59.0512 51.8042 59.343 52.5757 59.6353 53.347C60.1009 54.575 60.5685 55.8022 61.0371 57.0289C61.2061 57.4718 61.3751 57.9147 61.544 58.3576C61.7013 58.7694 61.8591 59.1811 62.0168 59.5927C62.1124 59.8432 62.208 60.0937 62.3035 60.3442C62.3461 60.4548 62.3886 60.5654 62.4325 60.6793C62.7113 61.4124 62.9481 62.1523 63.1641 62.9062C61.9658 62.2804 60.7863 61.6262 59.6142 60.9526C58.7222 60.4404 57.8262 59.9356 56.9282 59.4338C56.1262 58.9855 55.3241 58.537 54.5233 58.0864C54.398 58.0158 54.2726 57.9453 54.1435 57.8727C53.8964 57.7329 53.6499 57.5922 53.4039 57.4506C52.8185 57.1142 52.2329 56.7932 51.6244 56.5002C51.512 56.4432 51.3996 56.3861 51.2837 56.3273C51.076 56.2223 50.8654 56.1225 50.6519 56.0298C50.137 55.7618 49.9304 55.5446 49.7211 54.9941C49.5978 54.5479 49.5068 54.0967 49.4226 53.6417C49.3439 53.2219 49.248 52.8061 49.1551 52.3893C49.0843 52.0547 49.014 51.72 48.9441 51.3853C48.9056 51.2026 48.8671 51.02 48.8286 50.8374C48.6255 49.8722 48.4258 48.9063 48.2281 47.94C48.2085 47.8443 48.1889 47.7486 48.1687 47.65C48.011 46.879 48.011 46.879 47.9356 46.51C47.7319 45.5134 47.5255 44.5184 47.2844 43.53C47.0711 42.6532 46.902 41.7722 46.7381 40.8851C46.5557 39.9108 46.3414 38.9454 46.1162 37.9802C45.9861 37.4215 45.8595 36.8623 45.7426 36.3007C45.7214 36.199 45.7003 36.0974 45.6784 35.9926C45.6328 35.707 45.6328 35.707 45.6328 35.1914Z" fill="#38ECFD"/>
<path d="M39.1608 9.52597C39.4363 9.73731 39.6994 9.95538 39.9609 10.1836C40.0846 10.2821 40.2082 10.3807 40.3356 10.4822C42.3675 12.179 43.4867 14.8585 43.7274 17.4478C43.9084 20.197 43.1952 23.0194 41.3608 25.1266C41.2817 25.2151 41.2026 25.3035 41.1211 25.3945C41.0427 25.4981 40.9642 25.6016 40.8834 25.7082C39.409 27.4631 36.9394 28.7465 34.6758 29.0039C31.6073 29.229 28.7212 28.8066 26.2959 26.7788C26.2111 26.7048 26.1264 26.6309 26.0391 26.5547C25.9141 26.455 25.7891 26.3553 25.6604 26.2526C24.1583 24.9986 23.0264 22.9005 22.5586 21.0117C22.5325 20.9132 22.5064 20.8146 22.4795 20.7131C21.8596 17.9507 22.4203 15.0509 23.8477 12.6328C24.1641 12.1742 24.5069 11.7578 24.8789 11.3438C24.9799 11.2108 25.081 11.0779 25.1851 10.9409C28.7161 7.07356 34.9153 6.64021 39.1608 9.52597ZM26.5547 12.5039C26.4756 12.5835 26.3965 12.6631 26.315 12.7451C25.7471 13.3555 25.3784 14.0829 25.0078 14.8242C24.9457 14.9483 24.9457 14.9483 24.8824 15.075C24.0396 16.8962 24.0679 19.3603 24.7252 21.2298C25.2423 22.5756 25.9262 23.6008 26.9414 24.6211C27.0271 24.7113 27.1129 24.8016 27.2012 24.8945C28.8725 26.5307 31.1192 27.135 33.4018 27.116C34.2182 27.0927 34.9408 26.9764 35.707 26.6836C35.8322 26.6397 35.9573 26.5959 36.0862 26.5507C38.3032 25.7125 40.0074 24.0529 40.9922 21.9141C41.8191 20.0369 42.0165 17.6794 41.4001 15.7034C40.83 14.3223 40.1381 13.167 39.0586 12.1172C38.9702 12.0261 38.8818 11.9351 38.7907 11.8412C37.1759 10.2743 34.9958 9.63007 32.7977 9.63675C30.2804 9.67494 28.2706 10.7152 26.5547 12.5039Z" fill="#000101"/>
<path d="M37.5278 13.3015C38.8595 14.5547 39.7023 16.0225 39.7794 17.8721C39.8056 20.0283 39.209 21.6982 37.7292 23.2998C36.2419 24.7108 34.3968 25.2079 32.4018 25.172C30.6637 25.096 29.0063 24.1157 27.8392 22.8643C26.455 21.1938 26.1207 19.3164 26.262 17.1991C26.4023 15.9419 27.06 14.8849 27.8438 13.9219C27.9081 13.8415 27.9724 13.761 28.0386 13.6782C30.5134 10.9104 34.8209 10.9894 37.5278 13.3015ZM29.3977 15.2291C28.4356 16.4126 28.1201 17.5593 28.2305 19.0781C28.4794 20.4939 29.2657 21.5961 30.4219 22.4297C31.6342 23.1549 33.0401 23.3007 34.417 22.9861C35.7478 22.4865 36.8242 21.5529 37.4246 20.2564C37.9129 18.9338 37.9432 17.6758 37.3828 16.3711C36.7164 15.1068 35.6838 14.1694 34.3203 13.718C32.4411 13.3676 30.7035 13.7921 29.3977 15.2291Z" fill="#000202"/>
</g>
</g>
<defs>
<clipPath id="clip0_19_88">
<rect width="66" height="66" fill="white"/>
</clipPath>
<clipPath id="clip1_19_88">
<rect width="66" height="66" fill="white"/>
</clipPath>
</defs>
</svg>
