<svg width="60" height="60" viewBox="0 0 60 60" fill="none" xmlns="http://www.w3.org/2000/svg">
<path d="M25.965 50.6908H12.186C9.38728 50.6908 7.11853 52.9598 7.11853 55.7585V58.133H25.965V50.6908Z" stroke="#2DC0CE" stroke-width="2" stroke-linejoin="round"/>
<path d="M51.371 55.7585C51.371 52.9598 49.1023 50.6908 46.3033 50.6908H42.2438V58.133H51.371V55.7585Z" stroke="#2DC0CE" stroke-width="2" stroke-linejoin="round"/>
<path d="M24.002 33.8023V27.3008H16.0125V33.8023H24.002Z" stroke="#2DC0CE" stroke-width="2" stroke-linejoin="round"/>
<path d="M27.2632 27.3008V8.40906H12.7485V27.3008H27.2632Z" stroke="#2DC0CE" stroke-width="2" stroke-linejoin="round"/>
<path d="M16.3232 1.86694H23.686" stroke="#2DC0CE" stroke-width="2" stroke-linecap="round"/>
<path d="M7.11853 43.3505H28.134" stroke="#2DC0CE" stroke-width="2" stroke-linecap="round"/>
<path d="M27.2628 13.1813H34.1045C44.475 13.1813 52.8815 21.588 52.8815 31.958C52.8815 39.4125 48.5373 45.8528 42.2425 48.8848" stroke="#2DC0CE" stroke-width="2" stroke-linecap="round" stroke-linejoin="round"/>
<path d="M27.2318 22.177H34.104C39.5915 22.177 44.0397 26.6253 44.0397 32.1128C44.0397 35.8083 42.0225 39.0325 39.0287 40.7443L37.6357 41.533" stroke="#2DC0CE" stroke-width="2" stroke-linecap="round" stroke-linejoin="round"/>
<path d="M42.244 58.1326V48.8608C42.244 44.3656 38.5998 40.7216 34.1048 40.7216C29.6095 40.7216 25.9655 44.3656 25.9655 48.8608V58.1326H42.244Z" stroke="#2DC0CE" stroke-width="2" stroke-linejoin="round"/>
<path d="M34.1053 49.427C33.6915 49.427 33.356 49.0915 33.356 48.6777C33.356 48.2637 33.6915 47.9282 34.1053 47.9282" stroke="#2DC0CE" stroke-width="2" stroke-linecap="round" stroke-linejoin="round"/>
<path d="M34.1055 49.427C34.5192 49.427 34.8547 49.0915 34.8547 48.6777C34.8547 48.2637 34.5192 47.9282 34.1055 47.9282" stroke="#2DC0CE" stroke-width="2" stroke-linecap="round" stroke-linejoin="round"/>
</svg>
