<svg width="60" height="60" viewBox="0 0 60 60" fill="none" xmlns="http://www.w3.org/2000/svg">
<path d="M53.0175 11.25C53.4864 11.7187 53.7499 12.3545 53.75 13.0175V56.25C53.75 56.913 53.4866 57.5489 53.0178 58.0178C52.5489 58.4866 51.913 58.75 51.25 58.75H8.75C8.08696 58.75 7.45107 58.4866 6.98223 58.0178C6.51339 57.5489 6.25 56.913 6.25 56.25V3.75C6.25 3.08696 6.51339 2.45108 6.98223 1.98224C7.45107 1.5134 8.08696 1.25 8.75 1.25H41.9825C42.6448 1.24882 43.2805 1.51046 43.75 1.9775L53.0175 11.25Z" stroke="#2DC0CE" stroke-width="2" stroke-linecap="round" stroke-linejoin="round"/>
<path d="M16.25 31.2476C16.25 34.8943 17.6987 38.3917 20.2773 40.9703C22.8559 43.5489 26.3533 44.9976 30 44.9976C33.6467 44.9976 37.1441 43.5489 39.7227 40.9703C42.3013 38.3917 43.75 34.8943 43.75 31.2476C43.75 27.6008 42.3013 24.1035 39.7227 21.5248C37.1441 18.9462 33.6467 17.4976 30 17.4976C26.3533 17.4976 22.8559 18.9462 20.2773 21.5248C17.6987 24.1035 16.25 27.6008 16.25 31.2476Z" stroke="#2DC0CE" stroke-width="2" stroke-linecap="round" stroke-linejoin="round"/>
<path d="M37.7675 19.9L30 31.2475L38.8125 41.8025" stroke="#2DC0CE" stroke-width="2" stroke-linecap="round" stroke-linejoin="round"/>
<path d="M30 31.2476H16.25" stroke="#2DC0CE" stroke-width="2" stroke-linecap="round" stroke-linejoin="round"/>
</svg>
