<svg width="60" height="60" viewBox="0 0 60 60" fill="none" xmlns="http://www.w3.org/2000/svg">
<g clip-path="url(#clip0_22_336)">
<path d="M28.97 54.0124C27.4723 55.5713 25.6787 56.8156 23.6941 57.6725C21.7095 58.5295 19.5739 58.9819 17.4123 59.0032C15.2507 59.0245 13.1066 58.6143 11.1055 57.7967C9.10443 56.979 7.2866 55.7703 5.75847 54.2414C4.23033 52.7124 3.02262 50.8939 2.20605 48.8924C1.38948 46.8908 0.980462 44.7465 1.00295 42.5849C1.02545 40.4233 1.479 38.288 2.33704 36.3039C3.19509 34.3198 4.44038 32.5268 6 31.03L31.0275 5.99995C34.0821 2.96543 38.213 1.26233 42.5188 1.26233C46.8245 1.26233 50.9554 2.96543 54.01 5.99995C57.0457 9.05394 58.7497 13.1851 58.7497 17.4912C58.7497 21.7973 57.0457 25.9285 54.01 28.9825L28.97 54.0124Z" stroke="#2DC0CE" stroke-width="2" stroke-linecap="round" stroke-linejoin="round"/>
<path d="M18.51 18.51L41.4875 41.49" stroke="#2DC0CE" stroke-width="2" stroke-linecap="round" stroke-linejoin="round"/>
<path d="M34.5625 11.29C35.4911 10.361 36.5937 9.62401 37.8072 9.12121C39.0208 8.61841 40.3214 8.35962 41.635 8.35962C42.9486 8.35962 44.2493 8.61841 45.4628 9.12121C46.6763 9.62401 47.7789 10.361 48.7075 11.29" stroke="#2DC0CE" stroke-width="2" stroke-linecap="round" stroke-linejoin="round"/>
</g>
<defs>
<clipPath id="clip0_22_336">
<rect width="60" height="60" fill="white"/>
</clipPath>
</defs>
</svg>
