<svg width="66" height="66" viewBox="0 0 66 66" fill="none" xmlns="http://www.w3.org/2000/svg">
<g clip-path="url(#clip0_19_139)">
<path d="M52.8516 0.515616C52.9372 0.539067 53.0228 0.562517 53.111 0.586679C56.728 1.59477 60.011 3.98032 62.2617 6.96093C62.338 7.06096 62.4143 7.161 62.4929 7.26406C63.9567 9.26715 64.9874 11.524 65.6133 13.9219C65.652 14.0678 65.6907 14.2137 65.7306 14.364C66.5727 18.1944 66.1818 22.8069 64.1067 26.1841C63.6356 27.095 63.9376 27.8861 64.2245 28.8062C64.3755 29.3007 64.5072 29.7999 64.6388 30.2999C64.7071 30.5588 64.7769 30.8173 64.8486 31.0754C65.1027 32.0153 65.2417 32.8507 64.8625 33.7744C64.4958 34.3959 63.9296 34.8163 63.2849 35.1189C62.4186 35.2848 61.6997 35.1404 60.8715 34.9004C60.6547 34.8404 60.4379 34.7805 60.2211 34.7206C59.8829 34.6258 59.5449 34.5302 59.2071 34.4336C58.8789 34.3402 58.5499 34.2495 58.2208 34.1591C58.0704 34.1148 58.0703 34.1148 57.9168 34.0697C57.2996 33.902 56.9346 33.8855 56.3321 34.1601C56.1822 34.2261 56.0323 34.2921 55.8779 34.3601C55.798 34.3967 55.7181 34.4333 55.6357 34.471C53.3963 35.494 50.9577 36.2418 48.4688 36.0937C48.4937 36.1941 48.5186 36.2945 48.5443 36.3979C49.9847 42.5874 48.7368 49.0721 45.4231 54.4531C44.4545 55.9712 43.2549 57.3427 42.0235 58.6523C41.9504 58.7308 41.8772 58.8092 41.8019 58.89C41.1551 59.5612 40.4363 60.141 39.7032 60.7148C39.632 60.7707 39.5609 60.8266 39.4876 60.8842C38.2157 61.8752 36.8806 62.6822 35.4492 63.4219C35.3696 63.4637 35.29 63.5055 35.2079 63.5486C32.3235 65.0476 28.9194 66.0052 25.6584 66.0262C25.5638 66.0271 25.4692 66.028 25.3718 66.0289C21.464 66.058 17.6107 65.6091 14.0931 63.7552C13.9908 63.7015 13.8884 63.6478 13.783 63.5925C13.5861 63.4873 13.3906 63.3793 13.197 63.2681C13.1067 63.2193 13.0164 63.1705 12.9234 63.1202C12.8454 63.0759 12.7674 63.0315 12.687 62.9858C11.7823 62.755 10.7798 63.131 9.9107 63.3816C9.66246 63.4511 9.41421 63.5206 9.16597 63.59C8.78037 63.6991 8.3949 63.8086 8.00952 63.9185C7.63377 64.0252 7.25762 64.1305 6.8814 64.2356C6.7683 64.2684 6.65519 64.3011 6.53865 64.3349C5.27596 64.6864 4.0615 64.8972 2.83596 64.3242C2.03793 63.8319 1.64115 63.1658 1.34045 62.2949C1.15945 61.2693 1.41149 60.3885 1.6884 59.4046C1.77124 59.1002 1.85407 58.7957 1.93689 58.4912C2.0683 58.0144 2.20024 57.5378 2.33246 57.0613C2.46014 56.5993 2.58593 56.1369 2.71159 55.6744C2.7718 55.4611 2.7718 55.4611 2.83323 55.2434C2.88744 55.0434 2.88744 55.0434 2.94275 54.8392C2.97509 54.7227 3.00744 54.6061 3.04077 54.4861C3.14049 53.8362 2.96892 53.3115 2.67382 52.7383C2.61484 52.6209 2.55587 52.5036 2.4951 52.3827C2.43211 52.2582 2.36912 52.1338 2.30423 52.0056C0.933067 49.2093 0.00261494 46.1592 -0.0306898 43.0225C-0.0319523 42.9235 -0.0332128 42.8246 -0.0345135 42.7227C-0.0670799 39.5069 0.23177 36.5728 1.28909 33.5156C1.34426 33.3554 1.39942 33.1952 1.45626 33.0302C3.16666 28.4624 6.2383 24.3942 10.1836 21.5273C10.2946 21.4464 10.2946 21.4464 10.4079 21.3639C15.8232 17.4706 22.1412 16.3283 28.6568 17.2159C29.0887 17.2875 29.4907 17.3949 29.9063 17.5312C29.9018 17.445 29.8973 17.3588 29.8927 17.2699C29.7868 13.5135 31.4521 9.38119 33.9024 6.57421C33.9969 6.46554 34.0915 6.35686 34.1889 6.24489C34.476 5.9209 34.7679 5.60229 35.0625 5.28515C35.14 5.19924 35.2174 5.11333 35.2972 5.02482C39.5612 0.493108 46.952 -1.19021 52.8516 0.515616ZM15.211 21.6562C15.1264 21.6964 15.0418 21.7366 14.9547 21.778C12.9545 22.7404 11.176 24.049 9.59473 25.6007C9.42043 25.7712 9.24318 25.9387 9.06576 26.106C6.20564 28.8551 4.21696 32.6908 3.24685 36.5127C3.22173 36.6115 3.19661 36.7103 3.17072 36.8122C2.78673 38.4185 2.65789 40.015 2.66677 41.6609C2.66705 41.754 2.66733 41.8471 2.66762 41.9431C2.68375 45.3232 3.44487 48.5232 5.08477 51.4965C5.13806 51.5936 5.19135 51.6907 5.24625 51.7908C5.3496 51.9766 5.45508 52.1614 5.56304 52.3446C5.61076 52.4295 5.65848 52.5143 5.70765 52.6018C5.75051 52.6751 5.79337 52.7484 5.83753 52.8239C6.16074 53.8249 5.77622 54.8335 5.50221 55.8023C5.45898 55.9598 5.41576 56.1174 5.37123 56.2797C5.23368 56.7809 5.09451 57.2816 4.95486 57.7822C4.77056 58.4431 4.58809 59.1045 4.4065 59.7662C4.36354 59.9182 4.32059 60.0702 4.27632 60.2268C4.2376 60.3679 4.19888 60.5091 4.15898 60.6545C4.12435 60.7785 4.08971 60.9025 4.05402 61.0302C3.99514 61.3649 4.01418 61.5575 4.12503 61.875C4.57115 62.0272 4.85585 61.9786 5.30633 61.8549C5.50508 61.8013 5.50508 61.8013 5.70784 61.7467C5.85018 61.7069 5.99253 61.6672 6.13919 61.6262C6.28602 61.5863 6.43285 61.5464 6.58413 61.5052C7.05382 61.3772 7.52301 61.2475 7.99221 61.1177C8.3084 61.0311 8.62463 60.9447 8.94088 60.8583C9.63781 60.668 10.3344 60.4765 11.0308 60.2841C11.8619 60.0587 12.6958 59.8515 13.4934 60.2878C13.6508 60.3853 13.807 60.4848 13.9622 60.5859C18.746 63.4694 24.5815 63.9137 29.9304 62.6162C32.9067 61.8448 35.7452 60.5805 38.1563 58.6523C38.2315 58.5924 38.3067 58.5324 38.3841 58.4706C42.8595 54.8582 45.4262 49.6448 46.1212 43.9692C46.2004 43.1857 46.1801 42.3915 46.1807 41.6045C46.1808 41.5066 46.1809 41.4088 46.181 41.308C46.1788 39.7547 46.1006 38.2592 45.7617 36.7383C45.7403 36.6387 45.7189 36.5392 45.6968 36.4366C44.8267 32.5057 42.9295 28.9744 40.1335 26.0887C39.9847 25.9347 39.8384 25.7784 39.6926 25.6216C35.8364 21.5706 29.8006 19.7504 24.3547 19.5857C21.187 19.5543 18.0563 20.2799 15.211 21.6562Z" fill="#38EDFE"/>
<path d="M52.8516 0.515616C52.9372 0.539067 53.0228 0.562517 53.111 0.586679C56.728 1.59477 60.011 3.98032 62.2617 6.96093C62.338 7.06096 62.4143 7.161 62.4929 7.26406C63.9567 9.26715 64.9874 11.524 65.6133 13.9219C65.652 14.0678 65.6907 14.2137 65.7306 14.364C66.5727 18.1944 66.1818 22.8069 64.1067 26.1841C63.6356 27.095 63.9376 27.8861 64.2245 28.8062C64.3755 29.3007 64.5072 29.7999 64.6388 30.2999C64.7071 30.5588 64.7769 30.8173 64.8486 31.0754C65.1027 32.0153 65.2417 32.8507 64.8625 33.7744C64.4958 34.3959 63.9296 34.8163 63.2849 35.1189C62.4186 35.2848 61.6997 35.1404 60.8715 34.9004C60.6547 34.8404 60.4379 34.7805 60.2211 34.7206C59.8829 34.6258 59.5449 34.5302 59.2071 34.4336C58.8789 34.3402 58.5499 34.2495 58.2208 34.1591C58.0704 34.1148 58.0703 34.1148 57.9168 34.0697C57.2996 33.902 56.9346 33.8855 56.3321 34.1601C56.1822 34.2261 56.0323 34.2921 55.8779 34.3601C55.798 34.3967 55.7181 34.4333 55.6357 34.471C53.3963 35.494 50.9577 36.2418 48.4688 36.0937C48.4937 36.1941 48.5186 36.2945 48.5443 36.3979C49.9847 42.5874 48.7368 49.0721 45.4231 54.4531C44.4545 55.9712 43.2549 57.3427 42.0235 58.6523C41.9504 58.7308 41.8772 58.8092 41.8019 58.89C41.1551 59.5612 40.4363 60.141 39.7032 60.7148C39.632 60.7707 39.5609 60.8266 39.4876 60.8842C38.2157 61.8752 36.8806 62.6822 35.4492 63.4219C35.3696 63.4637 35.29 63.5055 35.2079 63.5486C32.3235 65.0476 28.9194 66.0052 25.6584 66.0262C25.5638 66.0271 25.4692 66.028 25.3718 66.0289C21.464 66.058 17.6107 65.6091 14.0931 63.7552C13.9908 63.7015 13.8884 63.6478 13.783 63.5925C13.5861 63.4873 13.3906 63.3793 13.197 63.2681C13.1067 63.2193 13.0164 63.1705 12.9234 63.1202C12.8454 63.0759 12.7674 63.0315 12.687 62.9858C11.7823 62.755 10.7798 63.131 9.9107 63.3816C9.66246 63.4511 9.41421 63.5206 9.16597 63.59C8.78037 63.6991 8.3949 63.8086 8.00952 63.9185C7.63377 64.0252 7.25762 64.1305 6.8814 64.2356C6.7683 64.2684 6.65519 64.3011 6.53865 64.3349C5.27596 64.6864 4.0615 64.8972 2.83596 64.3242C2.03793 63.8319 1.64115 63.1658 1.34045 62.2949C1.15945 61.2693 1.41149 60.3885 1.6884 59.4046C1.77124 59.1002 1.85407 58.7957 1.93689 58.4912C2.0683 58.0144 2.20024 57.5378 2.33246 57.0613C2.46014 56.5993 2.58593 56.1369 2.71159 55.6744C2.7718 55.4611 2.7718 55.4611 2.83323 55.2434C2.88744 55.0434 2.88744 55.0434 2.94275 54.8392C2.97509 54.7227 3.00744 54.6061 3.04077 54.4861C3.14049 53.8362 2.96892 53.3115 2.67382 52.7383C2.61484 52.6209 2.55587 52.5036 2.4951 52.3827C2.43211 52.2582 2.36912 52.1338 2.30423 52.0056C0.933067 49.2093 0.00261494 46.1592 -0.0306898 43.0225C-0.0319523 42.9235 -0.0332128 42.8246 -0.0345135 42.7227C-0.0670799 39.5069 0.23177 36.5728 1.28909 33.5156C1.34426 33.3554 1.39942 33.1952 1.45626 33.0302C3.16666 28.4624 6.2383 24.3942 10.1836 21.5273C10.2946 21.4464 10.2946 21.4464 10.4079 21.3639C15.8232 17.4706 22.1412 16.3283 28.6568 17.2159C29.0887 17.2875 29.4907 17.3949 29.9063 17.5312C29.9018 17.445 29.8973 17.3588 29.8927 17.2699C29.7868 13.5135 31.4521 9.38119 33.9024 6.57421C33.9969 6.46554 34.0915 6.35686 34.1889 6.24489C34.476 5.9209 34.7679 5.60229 35.0625 5.28515C35.14 5.19924 35.2174 5.11333 35.2972 5.02482C39.5612 0.493108 46.952 -1.19021 52.8516 0.515616ZM43.9571 3.09374C43.8655 3.11798 43.774 3.14222 43.6797 3.1672C41.5748 3.75025 39.5245 4.71273 37.8985 6.18749C37.7936 6.27573 37.6888 6.36396 37.5807 6.45487C34.9148 8.74289 33.3947 11.8003 32.7422 15.2109C32.7131 15.3613 32.6841 15.5117 32.6541 15.6666C32.4938 16.5943 32.4539 17.4933 32.4844 18.4336C32.5524 18.4594 32.6203 18.4853 32.6904 18.5119C36.1836 19.8493 39.0404 21.6683 41.7657 24.2344C41.8572 24.3189 41.9488 24.4035 42.0431 24.4907C44.5852 26.9184 46.4462 30.2142 47.5664 33.5156C50.498 33.6429 53.2693 32.8995 55.7827 31.3892C56.5085 31.0545 57.179 31.1852 57.9333 31.3791C58.0869 31.4181 58.2404 31.457 58.3986 31.4972C58.5568 31.5385 58.715 31.5798 58.878 31.6223C59.0342 31.6621 59.1904 31.7019 59.3513 31.7429C60.191 31.9578 61.0278 32.1812 61.8621 32.4165C62.128 32.4948 62.128 32.4948 62.3907 32.4844C62.2815 31.7107 62.0825 30.9607 61.8911 30.2043C61.8415 30.0061 61.8415 30.0061 61.7909 29.8038C61.6276 29.154 61.4569 28.5087 61.2698 27.8654C61.0714 27.1304 60.9707 26.5802 61.3 25.8673C61.3884 25.7171 61.4781 25.5676 61.5689 25.4187C63.3976 22.2064 63.8852 18.2696 63.0352 14.6953C63.0159 14.6122 62.9965 14.5291 62.9766 14.4435C62.4203 12.081 61.4269 9.82138 59.8125 7.99218C59.7225 7.88517 59.6324 7.77815 59.5396 7.6679C57.8844 5.74757 55.8221 4.53484 53.4961 3.60937C53.3678 3.55752 53.2396 3.50568 53.1074 3.45226C50.2969 2.41599 46.8407 2.32994 43.9571 3.09374ZM15.211 21.6562C15.1264 21.6964 15.0418 21.7366 14.9547 21.778C12.9545 22.7404 11.176 24.049 9.59473 25.6007C9.42043 25.7712 9.24318 25.9387 9.06576 26.106C6.20564 28.8551 4.21696 32.6908 3.24685 36.5127C3.22173 36.6115 3.19661 36.7103 3.17072 36.8122C2.78673 38.4185 2.65789 40.015 2.66677 41.6609C2.66705 41.754 2.66733 41.8471 2.66762 41.9431C2.68375 45.3232 3.44487 48.5232 5.08477 51.4965C5.13806 51.5936 5.19135 51.6907 5.24625 51.7908C5.3496 51.9766 5.45508 52.1614 5.56304 52.3446C5.61076 52.4295 5.65848 52.5143 5.70765 52.6018C5.75051 52.6751 5.79337 52.7484 5.83753 52.8239C6.16074 53.8249 5.77622 54.8335 5.50221 55.8023C5.45898 55.9598 5.41576 56.1174 5.37123 56.2797C5.23368 56.7809 5.09451 57.2816 4.95486 57.7822C4.77056 58.4431 4.58809 59.1045 4.4065 59.7662C4.36354 59.9182 4.32059 60.0702 4.27632 60.2268C4.2376 60.3679 4.19888 60.5091 4.15898 60.6545C4.12435 60.7785 4.08971 60.9025 4.05402 61.0302C3.99514 61.3649 4.01418 61.5575 4.12503 61.875C4.57115 62.0272 4.85585 61.9786 5.30633 61.8549C5.50508 61.8013 5.50508 61.8013 5.70784 61.7467C5.85018 61.7069 5.99253 61.6672 6.13919 61.6262C6.28602 61.5863 6.43285 61.5464 6.58413 61.5052C7.05382 61.3772 7.52301 61.2475 7.99221 61.1177C8.3084 61.0311 8.62463 60.9447 8.94088 60.8583C9.63781 60.668 10.3344 60.4765 11.0308 60.2841C11.8619 60.0587 12.6958 59.8515 13.4934 60.2878C13.6508 60.3853 13.807 60.4848 13.9622 60.5859C18.746 63.4694 24.5815 63.9137 29.9304 62.6162C32.9067 61.8448 35.7452 60.5805 38.1563 58.6523C38.2315 58.5924 38.3067 58.5324 38.3841 58.4706C42.8595 54.8582 45.4262 49.6448 46.1212 43.9692C46.2004 43.1857 46.1801 42.3915 46.1807 41.6045C46.1808 41.5066 46.1809 41.4088 46.181 41.308C46.1788 39.7547 46.1006 38.2592 45.7617 36.7383C45.7403 36.6387 45.7189 36.5392 45.6968 36.4366C44.8267 32.5057 42.9295 28.9744 40.1335 26.0887C39.9847 25.9347 39.8384 25.7784 39.6926 25.6216C35.8364 21.5706 29.8006 19.7504 24.3547 19.5857C21.187 19.5543 18.0563 20.2799 15.211 21.6562Z" fill="black"/>
<path d="M30.7522 27.6423C32.7241 29.549 33.7587 31.8455 33.9019 34.5897C33.9049 37.4284 32.8429 39.8197 30.8811 41.8542C30.5485 42.1785 30.1959 42.4602 29.8257 42.7405C29.2752 43.1576 28.802 43.5875 28.4883 44.2148C28.4539 44.4724 28.4221 44.7303 28.3916 44.9883C28.208 46.1939 27.8133 47.1246 26.8407 47.8922C25.814 48.5737 24.8107 48.7433 23.5899 48.5977C22.5411 48.3477 21.6751 47.7769 21.0671 46.8816C20.1977 45.3713 20.3592 43.5613 20.766 41.9132C21.4036 39.7008 22.8641 38.0627 24.6392 36.6471C25.2375 36.1564 25.6889 35.6918 25.9102 34.9336C25.9102 34.442 25.8189 34.2192 25.5557 33.8057C25.2409 33.4909 25.0527 33.3606 24.6211 33.2578C24.1358 33.2974 23.7458 33.3871 23.3321 33.6445C23.1867 33.8794 23.1867 33.8794 23.0904 34.1602C22.5688 35.4154 21.996 36.4428 20.7046 36.9996C19.5201 37.4025 18.4172 37.3772 17.2735 36.8672C16.3926 36.3915 15.5721 35.5801 15.2679 34.6043C15.0088 33.1692 15.2302 31.9784 15.8555 30.6797C15.91 30.5592 15.9645 30.4387 16.0207 30.3146C17.0835 28.155 19.0538 26.6212 21.2696 25.7813C24.4567 24.7442 28.2427 25.3378 30.7522 27.6423Z" fill="#0D56B9"/>
<path d="M26.4258 28.2305C26.608 28.292 26.608 28.292 26.7939 28.3548C28.5397 29.012 29.8622 30.2312 30.6636 31.9204C31.3809 33.5508 31.49 35.5191 30.9294 37.2136C30.2652 38.7973 28.9614 39.9894 27.6746 41.0889C26.7832 41.8581 26.0087 42.7167 25.8684 43.9324C25.8535 44.1759 25.8387 44.4194 25.824 44.663C25.7488 45.235 25.4749 45.5957 25.032 45.947C24.593 46.0599 24.2843 46.0055 23.8477 45.8906C23.5062 45.6332 23.249 45.4282 23.1413 45.0008C23.1159 44.7116 23.1138 44.4325 23.1226 44.1423C23.1245 44.0392 23.1265 43.9361 23.1286 43.8299C23.2034 42.0428 24.1723 40.6017 25.4511 39.4032C25.8701 39.0212 26.298 38.6507 26.7314 38.2852C27.7697 37.4059 28.3741 36.5322 28.5386 35.1572C28.6028 33.8339 28.238 32.8737 27.4087 31.8479C26.1572 30.8646 25.067 30.5352 23.4609 30.6797C23.0289 30.7927 22.6794 30.9609 22.3008 31.1953C22.2109 31.2485 22.121 31.3017 22.0284 31.3564C21.1436 31.9429 20.6713 32.7943 20.2866 33.7654C20.0965 34.1889 20.0136 34.354 19.5937 34.5469C19.0106 34.6117 18.709 34.6186 18.1838 34.3616C17.7995 33.884 17.7402 33.4767 17.7891 32.8711C17.9078 32.4517 18.093 32.0908 18.3047 31.7109C18.361 31.6043 18.4173 31.4976 18.4754 31.3877C19.3826 29.7621 20.8009 28.7282 22.5425 28.1016C23.7488 27.7925 25.2469 27.8305 26.4258 28.2305Z" fill="#38EBFE"/>
<path d="M26.9253 50.5715C27.8413 51.2947 28.2535 52.2595 28.3961 53.4044C28.4405 54.497 28.1231 55.5073 27.4314 56.3552C26.5898 57.2059 25.6514 57.6154 24.46 57.6694C23.3148 57.6427 22.3243 57.2612 21.4916 56.4695C20.726 55.5512 20.4463 54.5407 20.4603 53.3687C20.5568 52.3211 20.9755 51.3462 21.7852 50.6601C23.4595 49.5144 25.215 49.4487 26.9253 50.5715ZM23.4609 52.8515C23.1804 53.1809 23.1865 53.4663 23.2112 53.8828C23.2764 54.2845 23.3307 54.3968 23.606 54.7207C24.0798 54.9679 24.351 54.9989 24.8789 54.914C25.3345 54.5872 25.4941 54.3592 25.6685 53.8264C25.6893 53.3476 25.6893 53.3476 25.3865 52.9321C24.7105 52.3281 24.2068 52.3599 23.4609 52.8515Z" fill="#0D56B9"/>
<path d="M54.3662 16.7095C54.8347 16.7128 54.9029 16.7488 55.2927 17.064C55.6755 17.5511 55.7593 17.8115 55.6875 18.4336C55.4538 18.8112 55.1883 19.1344 54.7852 19.3359C54.3582 19.3843 54.3582 19.3843 53.8828 19.3359C53.3827 18.9228 53.1341 18.6519 53.061 18.0066C53.1213 17.4145 53.3054 17.2587 53.7539 16.8867C53.8828 16.7578 53.8828 16.7578 54.3662 16.7095Z" fill="#0E5BBB"/>
<path d="M47.9209 16.7095C48.3894 16.7128 48.4576 16.7488 48.8474 17.064C49.2331 17.5549 49.2912 17.8091 49.2422 18.4336C49.0776 18.7957 48.9443 19.0138 48.6218 19.2473C48.1027 19.4105 47.7119 19.3987 47.2119 19.1829C46.7588 18.8179 46.6896 18.4801 46.6077 17.918C46.6836 17.3976 46.9168 17.2212 47.3086 16.8867C47.4375 16.7578 47.4375 16.7578 47.9209 16.7095Z" fill="#0E5BBB"/>
<path d="M41.8945 16.7578C42.3507 16.9707 42.5146 17.1079 42.7969 17.5313C42.8282 18.0978 42.7681 18.5622 42.4182 19.0137C41.9638 19.3441 41.6838 19.3801 41.1211 19.3359C40.759 19.1713 40.5409 19.038 40.3074 18.7156C40.1425 18.1909 40.1504 17.8034 40.3879 17.3057C40.8252 16.7226 41.1993 16.6979 41.8945 16.7578Z" fill="#0E5BBB"/>
</g>
<defs>
<clipPath id="clip0_19_139">
<rect width="66" height="66" fill="white"/>
</clipPath>
</defs>
</svg>
