<svg width="24" height="24" viewBox="0 0 24 24" fill="none" xmlns="http://www.w3.org/2000/svg">
<g clip-path="url(#clip0_31_1423)">
<path d="M9.09375 0C11.0119 0 12.93 0 14.9062 0C15.0117 0.685379 15.0117 0.685379 15.0357 0.930199C15.0412 0.985069 15.0467 1.03994 15.0523 1.09647C15.0578 1.15338 15.0633 1.21029 15.069 1.26892C15.0782 1.36087 15.0874 1.45281 15.0965 1.54476C15.1123 1.70365 15.1279 1.86257 15.1436 2.02148C15.1624 2.21323 15.1813 2.40496 15.2004 2.59667C15.2122 2.71545 15.2239 2.83423 15.2355 2.95303C15.2408 3.00643 15.2461 3.05982 15.2516 3.11483C15.2585 3.1853 15.2585 3.1853 15.2656 3.2572C15.2782 3.3807 15.2782 3.3807 15.3281 3.51562C15.4071 3.56583 15.4071 3.56583 15.5065 3.60352C15.5441 3.61944 15.5816 3.63536 15.6204 3.65176C15.6612 3.66871 15.7021 3.68566 15.7441 3.70312C16.4134 3.9929 17.0424 4.34057 17.6133 4.79626C17.7177 4.88284 17.7177 4.88284 17.8594 4.92188C17.9529 4.89613 17.9529 4.89613 18.0519 4.84858C18.0906 4.8313 18.1294 4.81403 18.1694 4.79623C18.2114 4.77697 18.2534 4.7577 18.2966 4.73785C18.3623 4.7084 18.3623 4.7084 18.4292 4.67834C18.523 4.63622 18.6166 4.59389 18.7102 4.55138C18.8551 4.4855 19.0004 4.42019 19.1457 4.35504C19.3792 4.25025 19.6127 4.14508 19.846 4.03976C20.1073 3.92186 20.3688 3.80452 20.6309 3.68848C20.6729 3.66939 20.7149 3.65031 20.7582 3.63065C21.0308 3.51027 21.0308 3.51027 21.1875 3.5625C21.2583 3.66333 21.2583 3.66333 21.3336 3.79742C21.3617 3.84693 21.3899 3.89644 21.4188 3.94744C21.4488 4.0012 21.4788 4.05496 21.5098 4.11035C21.5575 4.19464 21.6053 4.27883 21.6532 4.36302C21.6856 4.42015 21.718 4.4773 21.7504 4.53448C21.8936 4.78755 22.0408 5.03814 22.1895 5.28809C22.3572 5.57084 22.5245 5.85387 22.6904 6.1377C22.7069 6.16587 22.7234 6.19404 22.7404 6.22307C22.808 6.33863 22.8755 6.4542 22.943 6.56982C23.1274 6.88565 23.3133 7.20037 23.504 7.51245C23.537 7.56669 23.57 7.62093 23.6031 7.67517C23.6652 7.77691 23.7276 7.87843 23.7905 7.9797C23.8181 8.02497 23.8457 8.07024 23.8742 8.11688C23.9108 8.17607 23.9108 8.17607 23.9481 8.23646C24 8.34375 24 8.34375 24 8.53125C23.9273 8.60311 23.9273 8.60311 23.8246 8.67169C23.7866 8.69756 23.7487 8.72342 23.7096 8.75007C23.6681 8.77744 23.6267 8.80481 23.584 8.83301C23.4972 8.8919 23.4105 8.95086 23.3238 9.00989C23.2798 9.0396 23.2359 9.06932 23.1906 9.09993C23.0035 9.22787 22.8206 9.36128 22.6377 9.49512C22.3022 9.73926 21.9617 9.97535 21.6183 10.2082C21.5831 10.2321 21.5479 10.256 21.5116 10.2806C21.4806 10.3016 21.4497 10.3225 21.4178 10.344C21.3882 10.3646 21.3586 10.3851 21.3281 10.4062C21.2932 10.4261 21.2582 10.446 21.2222 10.4665C21.1265 10.543 21.1265 10.543 21.1324 10.6761C21.1388 10.7282 21.1453 10.7803 21.152 10.834C21.1778 11.0883 21.1934 11.3372 21.1937 11.5928C21.1938 11.626 21.1938 11.6593 21.1939 11.6936C21.1939 11.7615 21.1938 11.8295 21.1936 11.8975C21.1934 11.9999 21.1936 12.1023 21.1939 12.2047C21.1939 12.2722 21.1938 12.3397 21.1937 12.4072C21.1938 12.4401 21.1939 12.4729 21.194 12.5068C21.1929 12.7268 21.1702 12.9383 21.1421 13.1569C21.1224 13.3633 21.1224 13.3633 21.1986 13.5478C21.2899 13.627 21.3802 13.6827 21.4863 13.7402C21.5605 13.7862 21.6346 13.8322 21.7086 13.8783C21.7468 13.9009 21.785 13.9235 21.8243 13.9468C22.0014 14.0544 22.168 14.1757 22.3359 14.2969C22.4019 14.3435 22.4678 14.3901 22.5339 14.4366C22.671 14.5334 22.8081 14.6302 22.9451 14.727C23.2962 14.975 23.6475 15.2228 24 15.4688C23.9724 15.6528 23.9166 15.7846 23.8228 15.9448C23.7953 15.992 23.7678 16.0392 23.7396 16.0879C23.7095 16.1388 23.6794 16.1897 23.6484 16.2422C23.6168 16.2964 23.5851 16.3506 23.5535 16.4048C23.4696 16.5484 23.3854 16.6918 23.301 16.8351C23.2185 16.9755 23.1363 17.1162 23.0541 17.2568C22.9051 17.5115 22.7557 17.766 22.6062 18.0204C22.485 18.2267 22.3643 18.4332 22.2437 18.6398C21.8822 19.2585 21.5182 19.8753 21.1406 20.4844C20.8313 20.3883 20.5376 20.2695 20.2425 20.1365C20.198 20.1166 20.1536 20.0968 20.1078 20.0764C19.9666 20.0133 19.8256 19.95 19.6846 19.8867C19.5912 19.845 19.4979 19.8032 19.4045 19.7615C19.3588 19.741 19.3132 19.7206 19.2661 19.6996C19.1754 19.6591 19.0847 19.6186 18.9939 19.5782C18.789 19.4871 18.5846 19.3951 18.3816 19.2998C18.3471 19.2839 18.3125 19.2679 18.277 19.2515C18.2136 19.2223 18.1505 19.1925 18.0878 19.1621C17.9262 19.087 17.9262 19.087 17.7552 19.1104C17.7277 19.1307 17.7002 19.151 17.6719 19.1719C17.6215 19.2067 17.5711 19.2415 17.5192 19.2773C17.4903 19.2979 17.4614 19.3185 17.4316 19.3396C17.13 19.5539 16.823 19.753 16.5 19.9336C16.4478 19.963 16.4478 19.963 16.3945 19.993C16.2202 20.0882 16.0486 20.1704 15.8613 20.237C15.8268 20.2498 15.7923 20.2625 15.7568 20.2757C15.6562 20.3115 15.6562 20.3115 15.5601 20.338C15.455 20.3701 15.455 20.3701 15.3281 20.4844C15.2923 20.6092 15.2923 20.6092 15.2766 20.755C15.2657 20.8373 15.2657 20.8373 15.2545 20.9212C15.2222 21.1984 15.1923 21.4756 15.1653 21.7533C15.1562 21.8452 15.147 21.9372 15.1378 22.0291C15.122 22.188 15.1064 22.3469 15.0908 22.5059C15.072 22.6976 15.0531 22.8893 15.034 23.081C15.0221 23.1998 15.0104 23.3186 14.9989 23.4374C14.9936 23.4908 14.9883 23.5442 14.9828 23.5992C14.9759 23.6697 14.9759 23.6697 14.9688 23.7416C14.9531 23.8594 14.9531 23.8594 14.9062 24C12.9881 24 11.07 24 9.09375 24C8.98831 23.3146 8.98831 23.3146 8.96428 23.0698C8.95881 23.0149 8.95334 22.9601 8.9477 22.9035C8.94218 22.8466 8.93666 22.7897 8.93097 22.7311C8.92181 22.6391 8.91264 22.5472 8.90347 22.4552C8.88766 22.2963 8.87206 22.1374 8.85645 21.9785C8.83761 21.7868 8.81873 21.595 8.7996 21.4033C8.78776 21.2846 8.77607 21.1658 8.76454 21.047C8.75921 20.9936 8.75389 20.9402 8.7484 20.8852C8.74379 20.8382 8.73918 20.7912 8.73443 20.7428C8.72175 20.6193 8.72175 20.6193 8.67188 20.4844C8.57385 20.425 8.57385 20.425 8.45087 20.376C8.40456 20.3558 8.35825 20.3357 8.31054 20.3149C8.26059 20.2935 8.21064 20.2721 8.15918 20.25C7.50733 19.9609 6.85242 19.645 6.34845 19.1283C6.1601 19.0455 5.99738 19.1478 5.8125 19.2188C5.67205 19.2767 5.53383 19.3388 5.39575 19.4022C5.35734 19.4196 5.31894 19.4371 5.27936 19.455C5.19799 19.4919 5.11665 19.5289 5.03535 19.566C4.82546 19.6616 4.61519 19.7565 4.40497 19.8514C4.36409 19.8699 4.3232 19.8883 4.28108 19.9074C3.96696 20.0493 3.65277 20.191 3.33691 20.3291C3.2792 20.3549 3.2792 20.3549 3.22032 20.3813C2.9695 20.4898 2.9695 20.4898 2.8125 20.4375C2.74389 20.3404 2.74389 20.3404 2.67133 20.2108C2.63022 20.1383 2.63022 20.1383 2.58828 20.0644C2.55882 20.0116 2.52937 19.9587 2.49902 19.9043C2.45184 19.8208 2.40449 19.7375 2.35711 19.6541C2.32424 19.5963 2.29142 19.5384 2.25864 19.4806C2.087 19.1779 1.90953 18.8789 1.73145 18.5801C1.46822 18.1375 1.20734 17.6937 0.949184 17.2482C0.804058 16.9985 0.656533 16.7505 0.50592 16.504C0.472994 16.45 0.440069 16.3959 0.407146 16.3418C0.343991 16.2384 0.28049 16.1351 0.216602 16.0321C0.188267 15.9857 0.159931 15.9392 0.130737 15.8914C0.092817 15.8299 0.092817 15.8299 0.0541306 15.7673C0 15.6562 0 15.6562 0 15.4688C0.07267 15.3969 0.07267 15.3969 0.175415 15.3283C0.213366 15.3024 0.251316 15.2766 0.290417 15.2499C0.331864 15.2226 0.373312 15.1952 0.416016 15.167C0.50279 15.1081 0.58952 15.0491 0.676208 14.9901C0.742158 14.9455 0.742158 14.9455 0.809441 14.9001C0.996532 14.7721 1.17941 14.6387 1.3623 14.5049C1.69778 14.2607 2.03828 14.0246 2.38166 13.7918C2.41689 13.7679 2.45211 13.744 2.4884 13.7194C2.51936 13.6984 2.55032 13.6775 2.58222 13.656C2.61181 13.6354 2.64139 13.6149 2.67188 13.5938C2.70683 13.5739 2.74179 13.554 2.7778 13.5335C2.87353 13.457 2.87353 13.457 2.86764 13.3239C2.86116 13.2718 2.85469 13.2197 2.84802 13.166C2.82221 12.9117 2.80656 12.6628 2.80627 12.4072C2.80622 12.374 2.80616 12.3407 2.80609 12.3064C2.80609 12.2385 2.80619 12.1705 2.80639 12.1025C2.80664 12.0001 2.80639 11.8977 2.80609 11.7953C2.80612 11.7278 2.80618 11.6603 2.80627 11.5928C2.80616 11.5435 2.80616 11.5435 2.80604 11.4932C2.80713 11.2732 2.82979 11.0617 2.85791 10.8431C2.87755 10.6367 2.87755 10.6367 2.80135 10.4522C2.71014 10.373 2.61981 10.3173 2.51367 10.2598C2.43954 10.2138 2.36544 10.1678 2.29138 10.1217C2.25321 10.0991 2.21504 10.0765 2.1757 10.0532C1.99862 9.94555 1.83203 9.82429 1.66406 9.70312C1.59814 9.65648 1.53216 9.60991 1.46613 9.56342C1.32902 9.46664 1.19194 9.36983 1.05487 9.27301C0.703758 9.02502 0.352521 8.77724 0 8.53125C0.0275723 8.34716 0.083351 8.21535 0.177246 8.05518C0.218435 7.98435 0.218435 7.98435 0.260456 7.91209C0.305554 7.83572 0.305554 7.83572 0.351562 7.75781C0.383211 7.70369 0.414831 7.64954 0.446423 7.59539C0.513189 7.48107 0.58016 7.36688 0.647301 7.25278C0.747763 7.08205 0.847707 6.91102 0.947571 6.73993C1.57779 5.66099 2.21489 4.5861 2.85938 3.51562C3.1687 3.61175 3.46236 3.73052 3.75751 3.86353C3.80195 3.88336 3.8464 3.90319 3.89219 3.92362C4.03335 3.98666 4.17439 4.04996 4.31543 4.11328C4.40877 4.15505 4.50213 4.1968 4.59549 4.23853C4.66401 4.26917 4.66401 4.26917 4.73391 4.30043C4.82461 4.34094 4.91534 4.38138 5.0061 4.42175C5.211 4.51295 5.41536 4.60491 5.61839 4.70023C5.65292 4.71615 5.68746 4.73206 5.72305 4.74847C5.78638 4.77768 5.84946 4.80746 5.91221 4.83791C6.07378 4.91296 6.07378 4.91296 6.2448 4.8896C6.2723 4.86932 6.29979 4.84903 6.32812 4.82812C6.37852 4.79332 6.42891 4.75852 6.48083 4.72266C6.50972 4.7021 6.5386 4.68154 6.56836 4.66035C6.86999 4.44606 7.177 4.24701 7.5 4.06641C7.53481 4.04682 7.56962 4.02723 7.60549 4.00705C7.77976 3.91178 7.95143 3.82961 8.13867 3.763C8.17317 3.75024 8.20768 3.73747 8.24323 3.72432C8.34375 3.68848 8.34375 3.68848 8.43988 3.66197C8.54496 3.62992 8.54496 3.62992 8.67188 3.51562C8.70769 3.39078 8.70769 3.39078 8.72341 3.24498C8.73435 3.1627 8.73435 3.1627 8.7455 3.07875C8.77783 2.80161 8.80771 2.52442 8.83466 2.2467C8.84382 2.15476 8.85298 2.06281 8.86216 1.97087C8.87797 1.81197 8.89357 1.65306 8.90918 1.49414C8.92802 1.3024 8.9469 1.11066 8.96603 0.918951C8.97786 0.800179 8.98956 0.681392 9.00109 0.56259C9.00641 0.509198 9.01174 0.455805 9.01722 0.400795C9.02414 0.330324 9.02414 0.330324 9.03119 0.258429C9.04688 0.140625 9.04688 0.140625 9.09375 0ZM8.11798 7.63861C8.01562 7.73438 8.01562 7.73438 7.89807 7.82556C7.68615 8.00028 7.52793 8.222 7.35938 8.4375C7.32723 8.47774 7.29508 8.51799 7.26196 8.55945C6.68457 9.31188 6.33979 10.2265 6.1875 11.1562C5.95934 11.1562 5.84999 10.9766 5.69403 10.8221C5.58952 10.7256 5.58952 10.7256 5.48181 10.7305C5.35318 10.8021 5.2846 10.8937 5.19434 11.0098C5.15796 11.0559 5.12158 11.102 5.08411 11.1495C5.04604 11.1981 5.00797 11.2468 4.96875 11.2969C4.89015 11.394 4.81079 11.4904 4.73145 11.5869C4.6961 11.6301 4.66075 11.6733 4.62433 11.7178C4.59877 11.7491 4.57321 11.7803 4.54688 11.8125C4.72063 11.9908 4.90212 12.1553 5.0918 12.3164C5.12071 12.3411 5.14962 12.3657 5.17941 12.3911C5.43451 12.608 5.69214 12.8215 5.95312 13.0312C5.9938 13.0642 5.9938 13.0642 6.03529 13.0979C6.12289 13.1687 6.21081 13.2392 6.29883 13.3096C6.32617 13.3317 6.35351 13.3539 6.38168 13.3768C6.59154 13.5433 6.7436 13.6406 7.01367 13.6406C7.47213 13.567 7.9063 13.2103 8.29102 12.9668C8.38952 12.9048 8.48803 12.8429 8.58655 12.7809C8.65677 12.7367 8.65677 12.7367 8.72841 12.6916C8.97406 12.5374 9.22127 12.3857 9.46875 12.2344C9.39612 11.9548 9.24646 11.7353 9.09082 11.4961C9.03946 11.4163 8.98813 11.3364 8.93683 11.2566C8.91411 11.2216 8.89138 11.1865 8.86797 11.1504C8.8125 11.0625 8.8125 11.0625 8.76562 10.9688C8.60767 10.9994 8.49173 11.0598 8.35474 11.1432C8.31304 11.1685 8.27135 11.1937 8.22839 11.2197C8.18525 11.2461 8.14211 11.2726 8.09766 11.2998C8.05379 11.3264 8.00992 11.353 7.96472 11.3805C7.85656 11.4461 7.74853 11.512 7.64062 11.5781C7.84411 10.6168 8.14219 9.78102 8.8125 9.04688C8.84338 9.01274 8.87425 8.97859 8.90607 8.94342C9.61907 8.19312 10.6827 7.70992 11.7173 7.67798C12.9865 7.65989 14.0696 7.97937 15.0005 8.86652C15.0967 8.96054 15.0967 8.96054 15.2344 9.04688C15.2537 9.02871 15.273 9.01055 15.293 8.99184C16.0026 8.32584 16.0026 8.32584 16.3125 8.0625C15.4568 6.96908 14.0459 6.34293 12.6964 6.16425C11.0527 5.97715 9.32503 6.49013 8.11798 7.63861ZM16.301 10.6716C16.2743 10.6878 16.2476 10.7041 16.2201 10.7208C16.1346 10.773 16.0492 10.8254 15.9639 10.8779C15.9051 10.9139 15.8462 10.9498 15.7874 10.9858C15.3669 11.2429 14.9479 11.5023 14.5312 11.7656C14.6039 12.0452 14.7535 12.2647 14.9092 12.5039C14.9605 12.5837 15.0119 12.6636 15.0632 12.7434C15.0973 12.796 15.0973 12.796 15.132 12.8496C15.1875 12.9375 15.1875 12.9375 15.2344 13.0312C15.3923 13.0006 15.5083 12.9402 15.6453 12.8568C15.687 12.8315 15.7287 12.8063 15.7716 12.7803C15.8147 12.7539 15.8579 12.7274 15.9023 12.7002C15.9681 12.6603 15.9681 12.6603 16.0353 12.6195C16.1434 12.5539 16.2515 12.488 16.3594 12.4219C16.1559 13.3832 15.8578 14.219 15.1875 14.9531C15.1566 14.9873 15.1257 15.0214 15.0939 15.0566C14.3795 15.8083 13.3223 16.2833 12.2877 16.3237C11.5001 16.3396 10.7916 16.2407 10.0781 15.8906C10.0344 15.8694 9.99075 15.8482 9.94574 15.8264C9.44815 15.5703 9.05683 15.2142 8.67188 14.8125C8.51978 14.8814 8.39974 14.9679 8.27051 15.0732C8.22996 15.1062 8.18942 15.1391 8.14764 15.173C8.10408 15.2087 8.06051 15.2445 8.01562 15.2812C7.96771 15.3203 7.91979 15.3594 7.87042 15.3997C7.74681 15.5007 7.62334 15.6018 7.5 15.7031C8.21336 16.7951 9.57341 17.4674 10.8112 17.7467C12.3064 18.041 13.8676 17.7842 15.1463 16.9412C15.3897 16.7757 15.6192 16.5962 15.8438 16.4062C15.8758 16.3804 15.9079 16.3546 15.941 16.3281C16.9391 15.5025 17.649 14.1238 17.8125 12.8438C18.0407 12.8438 18.15 13.0234 18.306 13.1779C18.4105 13.2744 18.4105 13.2744 18.5182 13.2695C18.6468 13.1979 18.7154 13.1063 18.8057 12.9902C18.842 12.9441 18.8784 12.898 18.9159 12.8505C18.973 12.7776 18.973 12.7776 19.0312 12.7031C19.1098 12.606 19.1892 12.5096 19.2686 12.4131C19.3039 12.3699 19.3393 12.3267 19.3757 12.2822C19.4012 12.2509 19.4268 12.2197 19.4531 12.1875C19.2794 12.0092 19.0979 11.8447 18.9082 11.6836C18.8648 11.6466 18.8648 11.6466 18.8206 11.6089C18.5655 11.392 18.3079 11.1785 18.0469 10.9688C18.0198 10.9468 17.9926 10.9248 17.9647 10.9021C17.8771 10.8313 17.7892 10.7608 17.7012 10.6904C17.6738 10.6683 17.6465 10.6461 17.6183 10.6232C17.4365 10.479 17.2769 10.3752 17.0449 10.3447C16.7727 10.3771 16.5311 10.5308 16.301 10.6716Z" fill="white"/>
</g>
<defs>
<clipPath id="clip0_31_1423">
<rect width="24" height="24" fill="white"/>
</clipPath>
</defs>
</svg>
