<svg width="24" height="24" viewBox="0 0 24 24" fill="none" xmlns="http://www.w3.org/2000/svg">
<path d="M10.1938 11.9909C10.2471 11.9905 10.3003 11.9901 10.3552 11.9897C10.5307 11.9885 10.7062 11.9878 10.8818 11.9871C10.9419 11.9868 11.0021 11.9866 11.064 11.9863C11.3168 11.9853 11.5697 11.9844 11.8225 11.9839C12.1833 11.9831 12.5441 11.9816 12.9049 11.9789C13.1902 11.9769 13.4756 11.9761 13.7609 11.9758C13.8818 11.9755 14.0027 11.9748 14.1236 11.9737C14.293 11.9722 14.4623 11.9722 14.6317 11.9725C14.6813 11.9718 14.7308 11.971 14.7818 11.9702C15.1539 11.9733 15.4618 12.0635 15.7459 12.313C15.9811 12.5552 16.0621 12.84 16.0986 13.1688C16.0811 13.5352 15.9165 13.8341 15.6597 14.0871C15.4187 14.2582 15.1727 14.3167 14.8828 14.3466C14.8494 14.3502 14.8159 14.3539 14.7815 14.3577C14.5743 14.3796 14.3669 14.3959 14.159 14.4105C14.1114 14.414 14.0639 14.4175 14.0149 14.4212C13.9217 14.4279 13.8285 14.434 13.7353 14.4392C13.4541 14.4596 13.2186 14.507 12.9844 14.6718C12.8435 14.8611 12.8187 15.0393 12.8273 15.2696C12.8614 15.4878 12.9575 15.6479 13.1366 15.7817C13.5555 15.9828 14.2021 15.8282 14.6514 15.7851C14.7432 15.7773 14.7432 15.7773 14.837 15.7695C15.4687 15.7097 15.9843 15.5625 16.5 15.1874C16.5446 15.1574 16.5446 15.1574 16.5901 15.1268C16.9016 14.8946 17.2059 14.475 17.2809 14.0924C17.3248 13.8949 17.3693 13.7611 17.4844 13.5936C17.7716 13.4132 18.1276 13.359 18.4541 13.286C18.5431 13.2642 18.632 13.242 18.7208 13.2197C18.8958 13.1758 19.0712 13.1336 19.2468 13.0925C19.5204 13.0276 19.7906 12.9521 20.0599 12.8712C20.4992 12.7435 20.8783 12.6996 21.29 12.9257C21.5429 13.1279 21.7231 13.3463 21.7674 13.6762C21.7751 14.0157 21.7399 14.3106 21.5156 14.578C21.2133 14.8149 20.8665 14.9879 20.5283 15.1669C20.4195 15.225 20.3107 15.2831 20.2018 15.3412C20.1466 15.3706 20.0914 15.4 20.0362 15.4295C19.7924 15.5596 19.5495 15.6913 19.3066 15.8231C19.2138 15.8735 19.1209 15.9238 19.028 15.9742C18.9592 16.0115 18.9592 16.0115 18.8891 16.0495C18.6553 16.1762 18.4214 16.3029 18.1875 16.4296C18.0938 16.4804 18 16.5311 17.9063 16.5819C17.7188 16.6835 17.5313 16.7851 17.3438 16.8866C17.2973 16.9118 17.2509 16.9369 17.203 16.9628C17.1096 17.0134 17.0162 17.064 16.9228 17.1146C16.634 17.271 16.3453 17.4275 16.0566 17.5842C15.9605 17.6362 15.8644 17.6882 15.7681 17.7401C15.5687 17.8476 15.3696 17.9554 15.1729 18.068C14.3738 18.5217 13.5161 18.6677 12.6206 18.4325C12.5784 18.4208 12.5362 18.4091 12.4927 18.3971C12.4468 18.3847 12.4009 18.3724 12.3536 18.3597C11.9928 18.2615 11.635 18.1536 11.2773 18.0448C11.1163 17.9963 10.9554 17.948 10.7944 17.8998C10.6849 17.8666 10.5756 17.8328 10.4665 17.7984C10.3056 17.748 10.1441 17.6999 9.98237 17.6522C9.93431 17.6365 9.88625 17.6208 9.83674 17.6046C9.44702 17.4934 9.21104 17.5799 8.85938 17.7655C8.79871 17.7945 8.73801 17.8235 8.67727 17.8524C8.62613 17.8786 8.57498 17.9049 8.52228 17.932C8.46494 17.9611 8.4076 17.9903 8.35026 18.0194C8.26258 18.0643 8.17495 18.1092 8.08735 18.1543C8.001 18.1986 7.91449 18.2425 7.82795 18.2865C7.77728 18.3125 7.72661 18.3385 7.6744 18.3652C7.54688 18.4218 7.54688 18.4218 7.40626 18.4218C7.39534 18.3813 7.38443 18.3409 7.37319 18.2992C7.26849 17.9113 7.16376 17.5233 7.05898 17.1354C6.9947 16.8974 6.93045 16.6594 6.86622 16.4213C6.82465 16.2673 6.78304 16.1133 6.74143 15.9593C6.7105 15.8447 6.67964 15.7302 6.64877 15.6156C6.55212 15.2573 6.45419 14.8995 6.35267 14.5426C6.33468 14.4789 6.31669 14.4153 6.29871 14.3517C6.26552 14.2346 6.23194 14.1177 6.19793 14.0009C6.1834 13.9496 6.16887 13.8982 6.15391 13.8454C6.14108 13.801 6.12826 13.7566 6.11505 13.7108C6.09255 13.587 6.09004 13.5211 6.14063 13.4061C6.26328 13.3295 6.3805 13.2655 6.51014 13.2029C6.54794 13.1841 6.58574 13.1652 6.62469 13.1458C6.70517 13.1059 6.7858 13.0663 6.86658 13.0269C6.98781 12.9679 7.10853 12.9079 7.22919 12.8477C7.80042 12.5646 8.37949 12.2831 9.00001 12.1259C9.05511 12.1116 9.11022 12.0972 9.167 12.0825C9.51269 12.0059 9.84057 11.9923 10.1938 11.9909Z" fill="white"/>
<path d="M11.8594 0.984342C11.9454 1.04825 11.9454 1.04825 12.0176 1.13962C12.0446 1.17339 12.0716 1.20717 12.0994 1.24197C12.143 1.30007 12.143 1.30007 12.1875 1.35934C12.2219 1.40436 12.2563 1.44938 12.2917 1.49576C12.5625 1.85827 12.5625 1.85827 12.5625 1.96872C12.611 1.96622 12.611 1.96622 12.6604 1.96367C12.8104 1.95617 12.9604 1.94919 13.1104 1.94235C13.164 1.93979 13.2177 1.93723 13.273 1.93459C13.5536 1.92291 13.8169 1.92358 14.0947 1.96286C14.2703 1.98295 14.2703 1.98295 14.4274 1.91873C14.5063 1.83148 14.5632 1.74078 14.625 1.64059C14.6796 1.5671 14.7343 1.49363 14.7897 1.42081C14.8457 1.34733 14.9005 1.27306 14.9553 1.19876C15.0469 1.07809 15.0469 1.07809 15.1406 0.984342C15.3717 0.957715 15.5048 1.01224 15.7028 1.12826C15.7551 1.15872 15.8075 1.18917 15.8615 1.22055C15.8885 1.23664 15.9154 1.25272 15.9432 1.2693C16.0245 1.31779 16.1063 1.36537 16.1882 1.41281C16.4773 1.58251 16.7541 1.75855 17.0156 1.96872C16.9887 2.2939 16.8631 2.546 16.7206 2.83609C16.6207 3.04473 16.6207 3.04473 16.5969 3.27115C16.6464 3.38875 16.7057 3.47642 16.7842 3.57712C16.9806 3.84572 17.1202 4.13386 17.2641 4.4324C17.3396 4.59403 17.3396 4.59403 17.4375 4.73434C17.5519 4.76536 17.5519 4.76536 17.6862 4.77554C17.7358 4.78101 17.7854 4.78648 17.8365 4.79211C17.8885 4.79722 17.9405 4.80232 17.9941 4.80758C18.0966 4.81807 18.199 4.82886 18.3014 4.83999C18.3469 4.8445 18.3925 4.849 18.4394 4.85365C18.5609 4.87469 18.6421 4.91161 18.75 4.96872C18.7536 5.26073 18.756 5.55273 18.7577 5.84476C18.7584 5.94416 18.7594 6.04356 18.7606 6.14295C18.7623 6.2856 18.7631 6.42823 18.7637 6.57089C18.7645 6.61552 18.7652 6.66015 18.7659 6.70613C18.7659 6.76806 18.7659 6.76806 18.766 6.83124C18.7664 6.88589 18.7664 6.88589 18.7669 6.94164C18.7613 6.9712 18.7557 7.00076 18.75 7.03122C18.5916 7.13681 18.5406 7.13467 18.3558 7.13357C17.8134 7.12912 17.8134 7.12912 17.3427 7.35094C17.1911 7.56461 17.1032 7.80343 17.0138 8.04809C16.931 8.24681 16.7948 8.39626 16.6547 8.55832C16.5649 8.72548 16.594 8.81758 16.6406 8.99997C16.7139 9.1842 16.8014 9.36133 16.8887 9.53921C16.9056 9.57504 16.9225 9.61088 16.9398 9.64779C16.9555 9.67983 16.9711 9.71186 16.9873 9.74486C17.0246 9.87505 17.013 9.95052 16.9688 10.0781C16.892 10.1504 16.892 10.1504 16.7906 10.2118C16.7524 10.2353 16.7143 10.2589 16.6749 10.2832C16.6327 10.3083 16.5904 10.3335 16.5469 10.3593C16.5021 10.387 16.4574 10.4147 16.4113 10.4432C16.2669 10.5319 16.1214 10.6186 15.9756 10.705C15.9262 10.7351 15.8768 10.7651 15.8259 10.796C15.778 10.8244 15.73 10.8527 15.6806 10.8819C15.6376 10.9076 15.5947 10.9333 15.5504 10.9598C15.4026 11.024 15.3002 11.0308 15.1406 11.0156C15.0546 10.9517 15.0546 10.9517 14.9824 10.8603C14.9417 10.8097 14.9417 10.8097 14.9002 10.758C14.7706 10.5845 14.6424 10.4103 14.5172 10.2337C14.4403 10.123 14.4403 10.123 14.3438 10.0312C14.2126 10.0303 14.2126 10.0303 14.0625 10.0488C13.7423 10.0783 13.4306 10.1017 13.1111 10.0559C12.8318 10.0072 12.8318 10.0072 12.5698 10.0814C12.4936 10.1691 12.436 10.2604 12.375 10.3593C12.3204 10.4328 12.2657 10.5063 12.2103 10.5791C12.1543 10.6526 12.0995 10.7269 12.0447 10.8012C11.9531 10.9218 11.9531 10.9218 11.8594 11.0156C11.6283 11.0422 11.4952 10.9877 11.2972 10.8717C11.2449 10.8412 11.1925 10.8108 11.1385 10.7794C11.1115 10.7633 11.0846 10.7472 11.0568 10.7306C10.9755 10.6821 10.8937 10.6346 10.8118 10.5871C10.5227 10.4174 10.2459 10.2414 9.98438 10.0312C10.0113 9.70603 10.1369 9.45394 10.2794 9.16385C10.3793 8.95521 10.3793 8.95521 10.4031 8.72879C10.3536 8.61119 10.2943 8.52351 10.2158 8.42282C10.0194 8.15422 9.87984 7.86607 9.7359 7.56753C9.66041 7.40591 9.66041 7.40591 9.5625 7.26559C9.44811 7.23458 9.44811 7.23458 9.31384 7.22439C9.26423 7.21893 9.21463 7.21346 9.16351 7.20782C9.11149 7.20272 9.05946 7.19761 9.00586 7.19235C8.90341 7.18187 8.80099 7.17107 8.69861 7.15994C8.65306 7.15544 8.6075 7.15093 8.56057 7.14629C8.4375 7.12497 8.4375 7.12497 8.25 7.03122C8.25 6.35059 8.25 5.66997 8.25 4.96872C8.43264 4.8774 8.49179 4.86516 8.68542 4.86636C9.20615 4.86859 9.20615 4.86859 9.65492 4.64899C9.80515 4.43462 9.89445 4.19585 9.9854 3.95184C10.0694 3.75369 10.2052 3.60367 10.3453 3.44162C10.4351 3.27445 10.406 3.18236 10.3594 2.99997C10.2861 2.81574 10.1986 2.63861 10.1113 2.46072C10.0944 2.42489 10.0776 2.38906 10.0602 2.35214C10.0367 2.30409 10.0367 2.30409 10.0127 2.25507C9.97539 2.12488 9.98699 2.04942 10.0312 1.92184C10.108 1.84958 10.108 1.84958 10.2094 1.78818C10.2476 1.76459 10.2857 1.74101 10.3251 1.71672C10.3673 1.6916 10.4096 1.66648 10.4531 1.64059C10.4979 1.61293 10.5426 1.58527 10.5887 1.55678C10.7331 1.468 10.8786 1.38129 11.0244 1.29489C11.0738 1.26486 11.1232 1.23483 11.1741 1.20389C11.222 1.17555 11.27 1.14721 11.3194 1.11801C11.3839 1.07945 11.3839 1.07945 11.4496 1.04012C11.5974 0.975963 11.6998 0.969166 11.8594 0.984342ZM12.1699 4.66989C11.7685 5.10315 11.6491 5.59936 11.6589 6.16971C11.6815 6.69312 11.9433 7.08411 12.3105 7.43844C12.7533 7.80197 13.2271 7.88563 13.7831 7.83951C14.3007 7.7752 14.6944 7.47448 15.0216 7.08523C15.3363 6.64509 15.3753 6.14935 15.3281 5.62497C15.2203 5.11803 14.9089 4.69847 14.4844 4.40622C13.7011 3.99267 12.8429 4.05579 12.1699 4.66989Z" fill="white"/>
<path d="M4.40625 13.4064C4.62357 13.5429 4.68211 13.6631 4.74718 13.9078C4.75577 13.9392 4.76437 13.9705 4.77322 14.0028C4.80155 14.107 4.82866 14.2115 4.85577 14.316C4.87567 14.3901 4.89564 14.4642 4.91568 14.5382C4.9692 14.7368 5.02167 14.9356 5.07393 15.1345C5.1281 15.3401 5.18315 15.5454 5.23812 15.7508C5.30434 15.9983 5.37044 16.2459 5.43609 16.4936C5.56704 16.9877 5.70059 17.4809 5.83722 17.9734C5.88308 18.1396 5.9289 18.3059 5.97471 18.4721C6.00313 18.5748 6.03173 18.6775 6.06053 18.7801C6.0999 18.9207 6.13848 19.0615 6.17688 19.2024C6.19409 19.2626 6.19409 19.2626 6.21164 19.3241C6.27322 19.5535 6.30034 19.734 6.23438 19.9689C6.10824 20.1356 5.95225 20.2156 5.76746 20.3087C5.74037 20.3225 5.71328 20.3363 5.68537 20.3505C5.62728 20.3801 5.5691 20.4095 5.51086 20.4388C5.35577 20.5167 5.20129 20.5959 5.04675 20.6749C5.01577 20.6907 4.9848 20.7065 4.95288 20.7228C4.68988 20.8574 4.43037 20.9977 4.17188 21.1407C3.71224 21.3943 3.24674 21.6358 2.77994 21.8758C2.42057 22.0606 2.06326 22.2485 1.70892 22.4428C1.59375 22.5001 1.59375 22.5001 1.5 22.5001C1.5 19.8859 1.5 17.2717 1.5 14.5782C2.04141 14.3307 2.58281 14.0832 3.14062 13.8282C3.51992 13.6508 3.51992 13.6508 3.89868 13.4723C4.07369 13.4004 4.21607 13.3793 4.40625 13.4064Z" fill="white"/>
</svg>
